<?xml version="1.0" encoding="UTF-8" standalone="no"?>
<!-- Created with Inkscape (http://www.inkscape.org/) -->

<svg
   xmlns:dc="http://purl.org/dc/elements/1.1/"
   xmlns:cc="http://creativecommons.org/ns#"
   xmlns:rdf="http://www.w3.org/1999/02/22-rdf-syntax-ns#"
   xmlns:svg="http://www.w3.org/2000/svg"
   xmlns="http://www.w3.org/2000/svg"
   xmlns:sodipodi="http://sodipodi.sourceforge.net/DTD/sodipodi-0.dtd"
   xmlns:inkscape="http://www.inkscape.org/namespaces/inkscape"
   width="3412"
   height="567.11786"
   id="svg3398"
   version="1.1"
   inkscape:version="0.48.4 r9939"
   sodipodi:docname="Nouveau document 10">
  <defs
     id="defs3400" />
  <sodipodi:namedview
     id="base"
     pagecolor="#ffffff"
     bordercolor="#666666"
     borderopacity="1.0"
     inkscape:pageopacity="0.0"
     inkscape:pageshadow="2"
     inkscape:zoom="0.24748737"
     inkscape:cx="1331.5374"
     inkscape:cy="571.76756"
     inkscape:document-units="px"
     inkscape:current-layer="layer1"
     showgrid="false"
     fit-margin-top="0"
     fit-margin-left="0"
     fit-margin-right="0"
     fit-margin-bottom="0"
     inkscape:window-width="1082"
     inkscape:window-height="623"
     inkscape:window-x="1"
     inkscape:window-y="87"
     inkscape:window-maximized="0" />
  <metadata
     id="metadata3403">
    <rdf:RDF>
      <cc:Work
         rdf:about="">
        <dc:format>image/svg+xml</dc:format>
        <dc:type
           rdf:resource="http://purl.org/dc/dcmitype/StillImage" />
        <dc:title></dc:title>
      </cc:Work>
    </rdf:RDF>
  </metadata>
  <g
     inkscape:label="Calque 1"
     inkscape:groupmode="layer"
     id="layer1"
     transform="translate(1074.5714,-480.23182)">
    <path
       inkscape:connector-curvature="0"
       id="path3198"
       d="m -1074.5714,1024.9697 0,-22.3807 12.25,-16.51361 c 6.7375,-9.0825 14.4024,-19.8237 17.0331,-23.8693 2.6308,-4.0457 7.027,-10.0442 9.7694,-13.3301 2.7424,-3.286 6.7375,-8.911 8.8778,-12.5 2.3109,-3.875 12.532,-15.8681 25.1631,-29.5256 32.39235,-35.0247 32.3121,-34.8802 27.35144,-49.2525 -1.40533,-4.0716 -3.02863,-11.3055 -3.60734,-16.0752 -0.89433,-7.3711 -4.82122,-26.6892 -7.96276,-39.1723 -0.48445,-1.925 -1.76519,-10.925 -2.84609,-20 -7.30402,-61.3229 -6.19785,-57.0827 -16.39255,-62.8363 -2.9551,-1.6677 -8.8209,-5.2831 -13.0351,-8.0342 -14.7578,-9.634 -30.215,-16.7579 -43.9122,-20.2383 l -12.6888,-3.2242 0,-20.3335 c 0,-11.1834 0.2147,-20.3335 0.4771,-20.3335 0.2625,0 3.3673,1.0878 6.8996,2.4174 3.5323,1.3295 14.68,4.6761 24.7728,7.4367 31.5561,8.6315 53.26202,17.8593 70.85047,30.1204 4.675,3.259 13,8.9505 18.5,12.6478 18.36035,12.3423 41.88591,30.6829 52.80152,41.1641 19.1389,18.3772 17.07886,18.7148 44.19848,-7.2428 11,-10.5286 22.025,-20.5353 24.5,-22.2371 2.475,-1.7017 5.625,-4.3218 7,-5.8224 1.375,-1.5006 7,-6.1342 12.5,-10.2969 5.5,-4.1627 12.925,-10.3427 16.5,-13.7334 11.72856,-11.1237 30.05869,-26.3446 36.26978,-30.1177 6.9686,-4.2332 23.39966,-15.4908 38.73022,-26.5358 14.49458,-10.4427 42.40306,-25.5636 63.5,-34.4046 6.05,-2.5354 13.79139,-6.1468 17.2031,-8.0254 3.4117,-1.8787 12.1867,-5.6201 19.5,-8.3142 7.31329,-2.6942 18.6969,-6.9431 25.2969,-9.4421 6.6,-2.4989 22.125,-7.2552 34.5,-10.5695 12.375,-3.3143 26.1,-7.1065 30.5,-8.4272 4.4,-1.3207 12.05,-2.71 17,-3.0873 4.95,-0.3774 14.85,-1.527 22,-2.5548 7.15,-1.0278 21.55,-2.5717 32,-3.431 10.45,-0.8593 20.12967,-1.7953 21.51038,-2.0801 20.62212,-4.2534 47.64733,-1.3925 84.98962,8.997 9.075,2.5249 22.35,6.1127 29.5,7.9728 7.15,1.8602 19.75,5.2652 28,7.5669 8.25,2.3016 18.90011,5.2493 23.66692,6.5504 4.76681,1.3011 14.89181,5.2536 22.5,8.7833 7.60819,3.5297 16.98308,7.4341 20.83308,8.6765 14.12046,4.5564 46.15313,18.6178 57.94861,25.4377 3.27173,1.8916 9.57173,4.4084 14,5.5928 4.42826,1.1844 10.52639,3.4279 13.55139,4.9857 3.025,1.5578 16.69857,8.0564 30.3857,14.4413 13.687141,6.385 28.762141,13.768 33.500001,16.4066 28.5305,15.8892 52.4901,31.5157 67.6143,44.0982 4.4000004,3.6606 10.78480043,8.5371 14.1885004,10.8366 3.4036,2.2996 8.3114996,6.6402 10.9063996,9.6459 10.7051,12.3996 13.7981,11.8601 39.3232,-6.8595 19.487,-14.2915 69.987699,-47.7596 83.081899,-55.0607 11.0132,-6.1407 12.8324,-7.2148 33,-19.4833 19.2824,-11.73 31.8779,-18.6691 39.0288,-21.5017 3.5908,-1.4224 8.9908,-4.6308 12,-7.1298 6.9835,-5.7996 9.2139,-6.957 17.3397,-8.9982 3.6622,-0.9199 10.5707,-3.9268 15.3886,-6.6978 4.8086,-2.7656 11.2179,-6.1183 14.2429,-7.4505 6.5375,-2.8789 25.7034,-13.9736 41.3003,-23.9078 25.2418,-16.0773 62.1862,-34.7785 76.8709,-38.9119 4.7691,-1.3424 11.7441,-3.5263 15.5,-4.853 3.7558,-1.3268 9.5288,-3.1736 12.8288,-4.1041 3.3,-0.9306 11.9237,-3.8833 19.1638,-6.5618 7.2401,-2.6784 16.0804,-5.3357 19.6451,-5.9052 3.5647,-0.5695 10.241,-2.1673 14.8362,-3.5507 20.5734,-6.1937 34.9609,-8.4816 62.8549,-9.9949 5.775,-0.3133 14.775,-1.0079 20,-1.5436 36.9202,-3.785 54.3566,-2.6799 95.5,6.0525 4.95,1.0506 16.4404,3.4809 25.5343,5.4008 35.9515,7.59 39.8164,8.8146 61.4657,19.4761 11,5.4171 22.475,10.6511 25.5,11.6311 3.025,0.9801 10.8164,4.4361 17.3143,7.68 6.4978,3.2439 14.1478,6.8156 17,7.937 2.8521,1.1215 6.5357,3.06 8.1857,4.3079 1.65,1.2479 5.9249,4.0649 9.5,6.2599 57.8948,35.5461 84.8491,55.9703 98.7335,74.8134 20.4731,27.7847 28.6996,29.9653 53.2665,14.119 38.37533,-24.753 63.92043,-38.9661 85.68113,-47.6721 5.9504,-2.3806 16.8939,-7.4391 24.3189,-11.2412 7.425,-3.8021 20.2936,-9.7488 28.5969,-13.2149 8.3034,-3.4661 17.3034,-7.4166 20,-8.779 2.6967,-1.3623 10.9781,-4.3902 18.4031,-6.7285 7.425,-2.3384 18.3213,-5.7637 24.214,-7.6118 13.7942,-4.3262 37.0338,-8.9193 57.286,-11.3219 15.2808,-1.8129 46.2593,-8.6261 59.7185,-13.1342 3.1451,-1.0535 8.0951,-1.9213 11,-1.9284 2.9048,-0.01 10.9065,-0.9019 17.7815,-1.9884 6.875,-1.0865 16.325,-2.4552 21,-3.0417 4.675,-0.5864 14.35,-2.2086 21.5,-3.6048 13.0278,-2.5439 21.8909,-3.6759 41.523,-5.3032 5.7876,-0.4798 16.3626,-1.8765 23.5,-3.104 26.0024,-4.4716 84.0735,-0.6494 113.4801,7.4693 5.2233,1.4421 13.855,3.0775 19.1816,3.6343 5.3266,0.5567 14.3266,2.3006 20,3.8753 5.6734,1.5748 14.8153,3.8669 20.3153,5.0938 28.6344,6.3871 84.6794,35.4017 115.6383,59.866 19.8688,15.7008 22.5054,17.7297 29.0541,22.3578 3.69,2.6078 10.836,7.244 15.8801,10.3026 20.4213,12.3829 31.1859,21.3372 63.8631,53.1231 16.3787,15.9319 24.4804,23.1292 31.0644,27.5965 2.475,1.6793 7.425,5.3584 11,8.1758 8.256,6.5063 31.5407,22.8277 38.8221,27.2124 9.372,5.6435 11.1264,5.0939 60.1779,-18.8526 14.575,-7.1153 32.125,-14.88 39,-17.2547 16.235,-5.6078 21.5144,-8.0045 33.0087,-14.9853 17.8894,-10.8646 73.7553,-37.9488 86.6383,-42.0029 6.5191,-2.0515 14.103,-4.6654 16.853,-5.8087 23.6938,-9.8506 63.8036,-19.336 88,-20.8108 12.4322,-0.7577 19.3593,-1.6959 40.5,-5.4847 9.595,-1.7196 50.8022,-1.6119 70.75,0.1849 l 7.25,0.6531 0,17.2031 0,17.2032 -5.5456,-0.9555 c -20.2429,-3.4876 -35.0425,22.8034 -47.4309,84.2591 -2.2728,11.275 -5.2333,23.8778 -6.5789,28.0062 -2.73,8.3762 -6.5009,26.1444 -9.4503,44.5293 -1.0742,6.6961 -3.3124,17.7412 -4.9737,24.5446 -5.5497,22.7269 -4.9027,23.2603 21.7851,17.9585 8.1987,-1.6288 20.4839,-4.9572 27.3005,-7.3965 12.5775,-4.5009 17.1973,-5.9762 22.1438,-7.0713 l 2.75,-0.6089 0,26.4028 0,26.4029 -13.25,3.2723 c -7.2875,1.7998 -15.05,3.9073 -17.25,4.6833 -7.961,2.8082 -26.3049,6.3535 -40.5,7.8274 -7.975,0.8281 -18.3127,2.1629 -22.9726,2.9662 -5.0296,0.8671 -11.7346,1.2672 -16.5,0.9846 -4.4151,-0.2618 -17.4774,-0.9594 -29.0274,-1.5502 -19.5836,-1.0016 -42.0219,-3.6563 -79.5,-9.4057 -8.525,-1.3078 -18.2,-2.6659 -21.5,-3.018 -3.3,-0.352 -12.525,-2.4096 -20.5,-4.5723 -7.975,-2.1628 -20.716,-5.0784 -28.3133,-6.4792 -15.6222,-2.8805 -22.8332,-5.5031 -40.6867,-14.7979 -6.875,-3.5792 -16.3509,-7.8527 -21.0575,-9.4968 -11.2596,-3.933 -42.2311,-19.802 -57.9425,-29.6881 -6.875,-4.326 -16.775,-9.7656 -22,-12.0879 -5.225,-2.3224 -11.6675,-5.4438 -14.3166,-6.9366 -6.7077,-3.7798 -35.451,5.6849 -51.0959,16.825 -1.6641,1.1849 -6.8645,4.1356 -11.5565,6.557 -31.775,16.3979 -38.6055,19.6774 -47.531,22.8207 -5.5,1.937 -12.7,5.0201 -16,6.8513 -3.3,1.8313 -10.6395,5.17 -16.31,7.4194 -5.6706,2.2493 -13.0208,5.4581 -16.334,7.1306 -3.3131,1.6724 -10.1486,4.0676 -15.1899,5.3227 -5.0414,1.255 -11.0496,3.2488 -13.3517,4.4307 -2.3021,1.1818 -9.0521,3.7661 -15,5.7428 -5.9479,1.9766 -16.2144,6.2505 -22.8144,9.4974 -6.6,3.247 -16.275,7.4307 -21.5,9.2971 -5.225,1.8664 -17.6,7.0885 -27.5,11.6046 -41.9216,19.1234 -76.0692,31.1328 -93.821,32.9959 -5.9515,0.6246 -13.6015,2.0075 -17,3.073 -4.0024,1.2549 -9.094,1.9418 -14.454,1.9502 -5.6835,0.01 -10.057,0.6392 -13.9653,2.0129 -3.6433,1.2805 -8.2538,2 -12.8161,2 -3.9192,0 -9.3348,0.7158 -12.0347,1.5906 -2.6999,0.8749 -10.7589,1.959 -17.9089,2.4091 -13.4789,0.8487 -30.554,2.0919 -58,4.2229 -24.5069,1.9028 -36.8174,1.058 -63,-4.3231 -30.3499,-6.2376 -33.9018,-7.3531 -53.5,-16.8023 -10.175,-4.9059 -20.3,-9.4578 -22.5,-10.1155 -12.0064,-3.589 -41.5199,-21.4419 -60.5,-36.5966 -7.2252,-5.7691 -28.967,-20.5786 -47.4293,-32.3067 -25.1754,-15.9926 -56.2251,-40.4185 -67.4895,-53.092 -3.5303,-3.972 -9.6053,-9.5992 -13.5,-12.505 -3.8947,-2.9057 -9.3312,-7.6094 -12.0812,-10.4526 -2.75,-2.8432 -9.725,-8.5979 -15.5,-12.7884 -5.775,-4.1904 -13.2777,-10.1858 -16.6726,-13.3231 -18.53103,-17.1244 -69.82293,-49.8195 -78.27553,-49.8954 -2.8863,-0.026 -17.0692,7.8522 -27.315,15.1724 -14.4159,10.2997 -24.5089,16.6261 -38.7368,24.2808 -7.975,4.2906 -19.3333,10.4559 -25.2407,13.7006 -5.9074,3.2448 -13.5574,7.1795 -17,8.7438 -3.4426,1.5642 -8.8385,4.4155 -11.9909,6.3361 -3.1524,1.9206 -8.7775,4.257 -12.5001,5.192 -6.7814,1.7032 -11.6959,3.6788 -31.2684,12.5699 -5.775,2.6234 -16.5641,6.8887 -23.9758,9.4785 -14.3636,5.0189 -26.864,10.8528 -31.6165,14.7554 -5.8176,4.777 -16.2266,9.5546 -30.9077,14.1862 -8.25,2.6027 -18.15,5.816 -22,7.1407 -3.85,1.3247 -13.075,3.9497 -20.5,5.8334 -11.724,2.9743 -24.1004,7.6418 -41,15.462 -3.5832,1.6581 -6.5372,2.0909 -14.5,2.1241 -8.6578,0.036 -11.1409,0.4611 -18.5,3.1664 -7.7162,2.8366 -10.0215,3.1934 -25,3.8696 -9.2274,0.4165 -19.5103,1.4725 -23.3296,2.3958 -5.2036,1.2579 -9.132,1.4958 -16.5,0.9994 -5.6416,-0.3802 -14.4614,-0.1418 -21.1704,0.5721 -31.995,3.4048 -78.505,4.8553 -95.7214,2.9851 -8.9335,-0.9703 -13.2463,-0.9608 -21.1526,0.047 -7.9746,1.0163 -11.1815,1.0188 -16.2785,0.012 -3.9962,-0.7889 -17.09,-1.338 -35.3475,-1.4822 l -29,-0.2291 -9,-3.0692 c -4.95,-1.6881 -19.8,-5.6338 -33,-8.7684 -29.4511,-6.9935 -36.0651,-8.8572 -45,-12.68 -3.85,-1.6473 -14.425,-5.6658 -23.5,-8.93 -9.075,-3.2642 -20.775,-7.9149 -26,-10.3348 -5.225,-2.42 -15.9624,-7.3836 -23.8608,-11.0303 -7.8984,-3.6467 -17.123399,-8.3353 -20.499999,-10.4192 -3.3766,-2.0839 -8.2822,-5.0065 -10.9013,-6.4947 -2.6192,-1.4883 -7.7177,-4.943 -11.3301,-7.6772 -3.6124,-2.7342 -8.4444,-5.9019 -10.7379,-7.0394 -2.2934,-1.1374 -7.8724,-4.5778 -12.3976,-7.6453 -11.2012,-7.5929 -16.2331,-8.1614 -24.2723,-2.742 -3.025,2.0392 -7.525,4.7496 -10,6.0232 -2.475,1.2735 -7.1111996,4.5424 -10.3025996,7.2641 -3.1915,2.7218 -8.1415,6.2004 -11,7.7304 -2.8586,1.53 -9.0155004,5.2474 -13.6822004,8.2609 -20.6336,13.3242 -72.33593,40.1913 -83.064161,43.1642 -3.71047,1.0283 -8.92987,2.8692 -11.59867,4.0911 -7.47111,3.4205 -26.80911,11.7606 -37.2378,16.0598 -5.16198,2.1281 -13.71198,6.1842 -19,9.0137 -5.47528,2.9296 -16.00359,7.218 -24.45473,9.9608 -8.16209,2.649 -15.86013,5.4847 -17.10675,6.3015 -3.65931,2.3977 -28.7577,13.4252 -38.96465,17.12 -11.86942,4.2965 -47.32177,19.3402 -56.65877,24.0422 -9.99038,5.0311 -49.34393,18.2796 -59.42967,20.0072 -2.2,0.3768 -8.09018,1.7273 -13.0893,3.0011 -5.25926,1.34 -15.16166,2.7625 -23.5,3.3758 -7.92588,0.5829 -18.9107,1.5813 -24.4107,2.2187 -18.65303,2.1616 -62.33638,1.6079 -74.32351,-0.9421 -11.37677,-2.4202 -20.01087,-2.761 -28.25971,-1.1156 -4.74745,0.9469 -6.65244,0.7647 -15.41678,-1.4749 -16.51511,-4.2203 -21.58611,-5.3821 -30.76433,-7.0481 -4.82039,-0.8749 -12.24539,-2.7026 -16.5,-4.0614 -4.25462,-1.3588 -10.04891,-2.4763 -12.87619,-2.4834 -8.01307,-0.02 -23.8372,-4.5815 -34.35948,-9.9047 -5.225,-2.6434 -12.65,-5.6144 -16.5,-6.6023 -9.60821,-2.4655 -57.39136,-22.7929 -77.5,-32.9692 -9.075,-4.5926 -22.74984,-10.8956 -30.38853,-14.0067 -7.63869,-3.111 -20.65815,-8.8168 -28.93215,-12.6795 -8.274,-3.8627 -17.21086,-7.8773 -19.85969,-8.9214 -7.28379,-2.871 -15.96706,-7.4177 -23.61581,-12.3657 -3.78262,-2.447 -11.78841,-7.022 -17.79065,-10.1667 -6.00225,-3.1447 -12.71317,-7.1505 -14.91317,-8.9016 -10.95955,-8.7237 -13.8865,-8.0427 -24.42188,5.6824 -3.87111,5.0432 -11.43481,13.652 -16.80825,19.1307 -5.37343,5.4788 -11.34487,11.8795 -13.26987,14.2238 -1.925,2.3444 -9.13262,10.9463 -16.01694,19.1153 -6.88431,8.1691 -13.98321,17.3279 -15.77533,20.3529 -1.79212,3.025 -5.73492,9.1 -8.76178,13.5 -3.02685,4.4 -8.29249,12.05 -11.7014,17 -3.40892,4.95 -10.11744,13.05 -14.90782,18 -10.8511,11.2127 -19.6247,21.5388 -31.8367,37.4703 -5.225,6.81641 -11.9984,15.34911 -15.0521,18.96161 -6.527,7.7215 -16.4047,20.6677 -19.9479,26.1449 l -2.5,3.8646 -7.25,0.029 -7.25,0.029 0,-22.3807 z m 617.71859,-98.46261 c 4.48341,-2.4118 11.42737,-17.5388 20.26986,-44.1567 2.64931,-7.975 5.96792,-17.2242 7.3747,-20.5538 1.40678,-3.3295 3.05696,-9.271 3.66706,-13.2031 0.61009,-3.9322 3.59657,-14.033 6.6366,-22.4463 3.04003,-8.4132 8.57089,-24.2968 12.29079,-35.2968 3.7199,-11 8.80779,-24.95 11.30642,-31 2.49863,-6.05 5.08116,-13.025 5.73897,-15.5 0.6578,-2.475 2.33796,-7.2 3.73369,-10.5 2.70591,-6.3977 11.36283,-30.2856 21.92513,-60.5 3.55695,-10.175 9.19474,-25.25 12.52841,-33.5 22.05275,-54.5751 22.28421,-53.9278 -20.19025,-56.4569 -8.525,-0.5076 -19.93704,-1.85 -25.36008,-2.983 -27.60767,-5.7682 -27.24481,-6.1232 -37.09254,36.2974 -3.27284,14.0983 -8.37589,32.3016 -12.47496,44.5 -3.81512,11.3534 -9.69853,29.6425 -13.07425,40.6425 -3.37571,11 -7.41756,24.05 -8.98188,29 -1.56431,4.95 -4.51824,16.875 -6.56428,26.5 -4.0618,19.1076 -4.41582,20.9598 -10.33669,54.0815 -2.22018,12.4198 -4.49679,23.7916 -5.05914,25.2707 -7.11883,18.724 -18.18484,76.5645 -15.60334,81.5566 3.65019,7.0587 40.12483,13.1651 49.26578,8.2479 z m 80.64933,-9.162 c 28.58373,-5.2605 47.27253,-10.9902 50.14465,-15.3736 2.0439,-3.1194 21.10119,-46.9996 26.97934,-62.1211 8.15271,-20.9728 20.7676,-51.7274 36.56927,-89.1544 2.12575,-5.035 6.98655,-16.06 10.80179,-24.5 6.31307,-13.9658 17.20177,-42.0401 21.65989,-55.8456 0.97684,-3.025 4.63381,-12.3786 8.12659,-20.7859 8.76891,-21.107 8.7872,-21.0222 -6.09554,-28.2588 -23.96525,-11.6528 -41.45005,-17.0185 -46.07797,-14.1403 -2.5231,1.5692 -18.47597,28.9882 -18.47597,31.7556 0,0.2996 -2.46148,5.8636 -5.46996,12.3645 -3.00848,6.5009 -8.62224,19.9661 -12.47503,29.9227 -3.85278,9.9566 -10.11772,24.0742 -13.92208,31.3726 -3.80435,7.2983 -7.70683,15.7446 -8.67216,18.7696 -0.96533,3.025 -3.42527,9.325 -5.46652,14 -2.04126,4.675 -6.07655,15.25 -8.9673,23.5 -2.89076,8.25 -6.39815,17.25 -7.7942,20 -1.39605,2.75 -4.90199,11.975 -7.79098,20.5 -2.889,8.525 -10.49615,29.9 -16.9048,47.5 -26.11369,71.7158 -26.47114,66.0714 3.83098,60.4947 z m 1784.82978,-1.8552 c 5.4929,-2.1385 6.1754,-4.9118 10.8625,-44.1395 1.1501,-9.625 2.9538,-21.1 4.0084,-25.5 1.0546,-4.4 1.9205,-9.9155 1.9244,-12.2566 0.01,-5.8204 2.6666,-23.051 4.9662,-32.2053 1.0415,-4.146 2.2095,-10.2381 2.5956,-13.5381 0.3861,-3.3 1.9962,-10.5 3.578,-16 1.5818,-5.5 3.3438,-12.925 3.9157,-16.5 1.2725,-7.9553 6.9597,-32.7995 11.6746,-51 7.3003,-28.1802 8.2531,-32.0336 12.8571,-52 2.5998,-11.275 5.7639,-23.2725 7.0313,-26.661 1.2674,-3.3886 3.2037,-11.4886 4.303,-18 1.0993,-6.5115 4.4932,-21.3399 7.5421,-32.952 8.8305,-33.6327 6.8724,-35.4485 -32.2335,-29.8895 -15.5127,2.2052 -15.1162,1.7928 -18.7164,19.4695 -3.2297,15.858 -3.6535,17.464 -17.9515,68.033 -6.7646,23.925 -14.8271,53.175 -17.9166,65 -3.0895,11.825 -7.4206,27.35 -9.6245,34.5 -5.6206,18.2342 -8.8103,31.5952 -9.9074,41.5 -1.7337,15.653 -10.4882,58.9 -16.0932,79.5 -4.236,15.569 -8.9703,43.5336 -9.0055,53.1942 -0.03,8.3574 41.1875,15.286 56.1897,9.4453 z m 63.1572,-7.5913 c 17.3632,-3.4548 43.9026,-10.5958 48.8091,-13.133 4.497,-2.3255 5.8675,-5.5364 7.4186,-17.3814 0.8012,-6.119 2.3724,-15.0423 3.4915,-19.8296 1.1191,-4.7873 2.4722,-12.3042 3.0069,-16.7042 0.5347,-4.4 2.0532,-13.625 3.3745,-20.5 1.3212,-6.875 2.6835,-14.75 3.0273,-17.5 0.8506,-6.8035 6.2513,-37.4826 8.0098,-45.5 0.7841,-3.575 3.7227,-18.425 6.5301,-33 2.8075,-14.575 7.0599,-36.4 9.4499,-48.5 2.3899,-12.1 5.0906,-26.05 6.0015,-31 1.8678,-10.1501 7.5147,-34.3897 10.5085,-45.1088 7.855,-28.1239 7.8015,-28.2627 -14.6373,-37.9322 -29.5717,-12.7434 -28.4288,-13.6893 -42.3395,35.041 -3.9666,13.8953 -11.8746,39.8475 -17.6734,58 -6.4525,20.1986 -14.3324,52.0725 -14.3324,57.9739 0,5.5858 -2.0722,13.8911 -7.9907,32.0261 -2.1539,6.6 -4.4142,14.925 -5.0227,18.5 -0.6086,3.575 -2.8632,11.9432 -5.0103,18.596 -2.6021,8.0627 -4.1179,14.8983 -4.5458,20.5 -0.3531,4.6222 -2.2214,14.704 -4.1518,22.404 -1.9304,7.7 -4.3622,18.275 -5.404,23.5 -1.0418,5.225 -3.2059,15.125 -4.8091,22 -9.0696,38.8938 -7.5919,42.3 16.2893,37.5482 z m -2033.89412,0.8285 c 3.72881,-1.4309 7.89642,-15.0608 8.9825,-29.3767 0.66988,-8.8299 4.73833,-31.3443 7.58959,-42 1.10376,-4.125 3.4071,-13.8 5.11854,-21.5 1.71143,-7.7 3.9656,-17.6 5.00926,-22 2.88012,-12.1424 5.36532,-24.0925 9.35842,-45 1.99583,-10.45 4.26646,-21.025 5.04584,-23.5 1.30026,-4.1291 4.24213,-16.6327 11.05826,-47 1.41969,-6.325 4.29231,-17.575 6.3836,-25 13.42515,-47.6651 17.56194,-69.926 13.49025,-72.5939 -4.72923,-3.0987 -41.80766,-1.2977 -51.77616,2.5149 -4.26943,1.6329 -5.71311,4.6541 -8.68032,18.1652 -1.62021,7.3776 -4.49618,18.5888 -6.39104,24.9138 -5.08311,16.9672 -11.38409,40.6495 -12.638,47.5 -0.60404,3.3 -2.62803,12.975 -4.49775,21.5 -1.86973,8.525 -4.58127,20.9 -6.02565,27.5 -1.44438,6.6 -5.06652,22.8 -8.0492,36 -2.98267,13.2 -6.32104,29.1922 -7.41859,35.5383 -1.09755,6.3462 -3.14536,14.8962 -4.55069,19 -1.40533,4.1039 -3.68613,14.2117 -5.06845,22.4617 -1.38231,8.25 -3.5945,19.5 -4.91599,25 -8.88936,36.9974 -9.23077,36.1473 17.02689,42.3953 9.89333,2.3542 19.33788,4.6502 20.98788,5.1023 3.76933,1.0328 7.85223,1.1882 9.96081,0.3791 z m 1866.14022,-3.4716 c 1.6374,-1.5382 2.9003,-4.8995 4.4258,-11.7788 1.174,-5.2945 5.6376,-24.0263 9.919,-41.6263 4.2815,-17.6 10.1008,-41.675 12.9318,-53.5 2.831,-11.825 8.5647,-35.225 12.7417,-52 4.1769,-16.775 8.4604,-34.325 9.5188,-39 2.5819,-11.4045 4.8065,-18.9439 10.3274,-35 6.7937,-19.7581 16.0838,-58.1367 17.4285,-72 0.6135,-6.325 2.677,-17.575 4.5855,-25 6.9652,-27.0976 6.1662,-27.6233 -33.4857,-22.035 -28.8425,4.065 -27.5065,3.1618 -31.1168,21.035 -3.8146,18.884 -13.066,55.5445 -27.5064,109 -1.8572,6.875 -5.2216,19.925 -7.4764,29 -2.2548,9.075 -5.1738,20.775 -6.4866,26 -30.3184,120.6648 -35.4093,143.4347 -33.418,149.4684 4.2175,12.7792 48.3507,26.1366 57.6114,17.4367 z m -1971.39871,-20.6352 c 0.93628,-0.8215 2.11635,-3.8058 2.62238,-6.6317 4.73849,-26.4626 7.07922,-37.927 11.25778,-55.1382 4.75823,-19.5989 6.87605,-30.3906 10.89155,-55.5 5.00381,-31.2895 5.99823,-37.1459 7.98065,-47 1.16179,-5.775 2.99326,-14.325 4.06992,-19 1.07667,-4.675 3.08267,-14.8 4.45777,-22.5 1.3751,-7.7 3.61465,-18.725 4.97678,-24.5 10.61196,-44.9915 5.7379,-49.7064 -27.95915,-27.0461 -3.85,2.589 -9.475,5.8586 -12.5,7.2658 -18.69063,8.6948 -21.63714,13.399 -23.97708,38.2803 -0.56897,6.05 -2.36938,23.15 -4.00092,38 -2.70519,24.6223 -3.90162,37.7812 -7.04647,77.5 -0.58789,7.425 -1.50643,17.1528 -2.04119,21.6172 -5.37984,44.9138 -3.21362,65.221 7.49288,70.2419 16.00546,7.506 19.50688,8.1556 23.7751,4.4108 z m 436.40771,-10.1775 c 34.12965,-12.9497 36.69211,-15.1101 45.7753,-38.5924 1.91471,-4.95 4.83314,-11.9655 6.48539,-15.59 1.65226,-3.6245 5.25733,-13.9745 8.01126,-23 3.21148,-10.525 7.49621,-21.61 11.94776,-30.91 10.13213,-21.1676 35.17026,-84.1893 35.17026,-88.5246 0,-12.1986 -34.76778,-25.0078 -41.00973,-15.1089 -8.89125,14.1004 -26.78776,50.2582 -33.4755,67.6335 -1.79941,4.675 -4.18633,10.3 -5.30427,12.5 -3.89761,7.6701 -17.47683,41.0965 -24.77078,60.9753 -4.04112,11.0136 -11.00265,29.0247 -15.47006,40.0247 -17.04186,41.9618 -17.08011,41.8693 12.64037,30.5924 z m 1834.3147,-4.4388 c 20.106,-6.7177 20.3507,-7.1096 24.5325,-39.2788 0.8669,-6.6689 3.106,-19.9439 4.9757,-29.5 1.8698,-9.5562 5.2485,-29.6613 7.5083,-44.6781 4.7963,-31.8721 5.5514,-35.6704 11.5183,-57.9398 2.4694,-9.2163 5.4348,-22.1569 6.5896,-28.7569 1.1549,-6.6 3.8663,-19.4711 6.0253,-28.6024 6.0658,-25.6541 5.765,-26.478 -13.9747,-38.2782 -10.6698,-6.3784 -15.0232,-7.192 -17.5824,-3.2862 -2.5844,3.9443 -20.0741,71.4432 -22.4607,86.6838 -1.4861,9.4899 -5.6677,27.7755 -7.5426,32.983 -1.9346,5.3732 -11.6775,46.7543 -14.0088,59.5 -0.9054,4.95 -3.2185,15.4468 -5.1403,23.3263 -1.9217,7.8795 -3.7297,17.5545 -4.0176,21.5 -0.288,3.9455 -1.4251,11.5542 -2.5269,16.9081 -6.8326,33.2003 -1.8887,38.772 26.1043,29.4192 z m -397.5236,-8.9036 c 2.4066,-2.1551 8.7904,-22.8057 19.2437,-62.25 1.3118,-4.95 3.9207,-13.5 5.7976,-19 3.9014,-11.4328 10.0395,-34.1378 11.6247,-43 0.5902,-3.3 1.9341,-9.4206 2.9864,-13.6014 1.0522,-4.1807 3.5198,-16.3307 5.4835,-27 1.9636,-10.6692 4.6148,-23.6736 5.8914,-28.8986 1.2766,-5.225 3.5393,-16.25 5.0281,-24.5 2.7156,-15.0479 6.5041,-33.4817 11.0979,-54 5.017,-22.4086 2.8204,-24.1266 -21.0544,-16.467 -20.5466,6.5918 -28.4855,12.3889 -30.3431,22.1568 -4.1151,21.6392 -6.4596,32.3768 -8.128,37.2262 -1.0633,3.0905 -3.7619,15.3987 -5.997,27.3515 -2.235,11.9529 -4.7211,24.2758 -5.5247,27.3844 -0.8036,3.1085 -2.5724,12.1085 -3.9307,20 -4.9295,28.6385 -6.7357,38.4514 -8.0707,43.8481 -0.7483,3.025 -1.8583,9.1 -2.4665,13.5 -0.6083,4.4 -1.9725,12.275 -3.0317,17.5 -1.0591,5.225 -2.6405,13.775 -3.5142,19 -0.8737,5.225 -2.7317,14.9 -4.1289,21.5 -4.7823,22.59 -4.6395,23.1642 7.8753,31.6628 13.7869,9.3625 17.6371,10.743 21.1613,7.5872 z m -1950.67912,-6.4485 c 1.53572,-2.3438 1.85679,-6.3199 2.44268,-30.25 0.98419,-40.1984 3.55863,-79.5042 6.9134,-105.5515 5.11922,-39.7471 3.71586,-41.4278 -18.99241,-22.7453 -14.64248,12.0466 -13.19378,6.1933 -13.57338,54.8414 -0.21501,27.5543 -0.86802,47.8966 -1.90694,59.4039 -3.30422,36.5982 -2.58096,39.6939 10.39464,44.4922 8.87894,3.2833 12.47629,3.2367 14.72201,-0.1907 z m 2875.21882,-10.748 c 2.109,-1.9086 5.6875,-11.9252 9.0284,-25.2719 1.1315,-4.5201 4.7902,-17.3451 8.1305,-28.5 3.3402,-11.1549 7.5526,-26.8066 9.3608,-34.7816 4.262,-18.7972 8.7371,-34.2545 18.0084,-62.2012 10.6856,-32.2099 11.0028,-31.5097 -11.4689,-25.3239 -32.4602,8.9352 -36.3254,11.5219 -39.6213,26.5154 -0.9079,4.1303 -3.3854,11.3849 -5.5055,16.1212 -2.4642,5.5051 -5.1363,14.3428 -7.4076,24.5 -5.0072,22.3913 -5.9816,25.8637 -9.7907,34.8885 -1.8873,4.4716 -4.0831,12.2061 -4.9786,17.5366 -0.8812,5.2451 -3.2322,14.9141 -5.2244,21.4867 -7.7911,25.7035 -6.409,28.8585 15.031,34.3133 13.4411,3.4196 21.2,3.6473 24.4379,0.7169 z m 76.5886,-1.7883 c 6.5935,-2.2071 7.1506,-3.5014 17.5481,-40.7652 2.2955,-8.2272 4.6559,-19.6522 5.456,-26.4095 0.7757,-6.5502 2.7389,-16.2252 4.3628,-21.5 1.6239,-5.2748 4.7614,-16.7905 6.9723,-25.5905 4.6878,-18.6591 7.6851,-28.5397 15.9258,-52.5 10.0766,-29.2985 9.5128,-30.9682 -9.1113,-26.9807 -15.5072,3.3201 -17.3379,4.6754 -21.0471,15.5809 -1.2979,3.816 -3.3076,8.796 -4.4661,11.0667 -1.1584,2.2707 -3.0215,7.4371 -4.1402,11.4808 -1.1188,4.0438 -3.6051,12.0773 -5.5251,17.8523 -9.7583,29.3497 -25.6979,79.6788 -28.0286,88.5 -1.4533,5.5 -4.225,15.175 -6.1594,21.5 -4.9452,16.169 -5.4647,23.9428 -1.8423,27.5652 l 2.7311,2.7311 11.7722,-0.633 c 6.4747,-0.3481 13.473,-1.2023 15.5518,-1.8981 z m -510.7433,-9.6989 c 22.3422,-7.6375 21.2473,-5.987 24.7883,-37.3672 2.0773,-18.4087 3.0853,-23.9066 5.9035,-32.1991 2.0774,-6.113 4.0151,-14.6644 4.985,-22 1.9147,-14.4825 5.9592,-38.5872 8.6037,-51.2782 4.0176,-19.2802 2.7258,-22.165 -16.3767,-36.5702 -18.4497,-13.9129 -17.649,-15.1388 -27.662,42.3484 -2.2513,12.925 -5.6405,31.375 -7.5316,41 -3.4119,17.3649 -10.2649,55.9071 -14.6128,82.1844 -3.5544,21.482 -2.4247,22.198 21.9026,13.8819 z m -1280.44343,1.8234 c 3.6263,-1.6522 4.7045,-5.0464 6.1588,-19.3876 0.7252,-7.1512 2.241,-17.5021 3.3685,-23.0021 1.1275,-5.5 2.5308,-13.375 3.1184,-17.5 1.1796,-8.2802 5.1444,-26.0579 11.2624,-50.5 2.2028,-8.8 4.8391,-20.05 5.8586,-25 1.0194,-4.95 3.849,-18.225 6.2879,-29.5 4.6347,-21.4264 8.9481,-42.6094 11.0974,-54.5 0.696,-3.85 2.6617,-12.4 4.3683,-19 15.6522,-60.5307 15.788,-63.5 2.9037,-63.5 -19.2581,0 -33.1419,6.9032 -37.1822,18.4876 -1.7131,4.9119 -10.0597,40.7835 -13.1492,56.5124 -1.2424,6.325 -2.5217,12.175 -2.843,13 -0.3213,0.825 -1.7141,7.35 -3.095,14.5 -4.0524,20.9814 -8.811,41.559 -14.7999,64 -3.5197,13.1881 -6.9157,29.1838 -9.1294,43 -1.9388,12.1 -4.2087,24.925 -5.0442,28.5 -0.8355,3.575 -2.1584,10.1 -2.9396,14.5 -0.7813,4.4 -2.5823,14.5136 -4.0023,22.4747 -4.1924,23.5039 -4.1629,23.568 12.0286,26.1059 12.9812,2.0348 22.3927,2.3307 25.7322,0.8091 z m 105.5497,-1.3182 c 13.4203,-2.4437 16.1149,-5.5887 16.0986,-18.7894 -0.012,-9.879 2.7979,-43.2035 4.5774,-54.2821 3.0219,-18.8125 7.2247,-47.3883 8.3833,-57 2.4299,-20.1588 3.1753,-25.1168 4.6219,-30.7411 0.8121,-3.1575 2.3429,-11.9695 3.4018,-19.5822 3.5668,-25.642 14.57,-75.1662 24.1457,-108.6767 6.6027,-23.1068 -1.2143,-28.314 -36.7572,-24.4854 -14.1038,1.5193 -15.0507,2.2098 -19.1784,13.9854 -5.3606,15.2931 -7.5395,24.3495 -11.6687,48.5 -3.9583,23.1512 -8.8741,47.4946 -12.0153,59.5 -3.1085,11.8805 -9.0705,40.2778 -13.8567,66 -0.8699,4.675 -2.7368,16.4691 -4.1487,26.209 -1.4119,9.74 -3.2526,19.865 -4.0903,22.5 -0.8378,2.6351 -1.6773,9.291 -1.8656,14.791 -0.2076,6.0613 -1.2177,13.3479 -2.5646,18.5 -1.2222,4.675 -2.597,13.45 -3.0551,19.5 -0.4581,6.05 -1.1393,13.8044 -1.5139,17.2321 -1.0909,9.9818 17.8514,12.5998 49.4858,6.8394 z m -187.0878,-1.8328 c 2.5552,-2.1039 3.319,-4.9561 4.1869,-15.634 0.4835,-5.9493 1.6124,-13.6464 2.5085,-17.1046 1.7143,-6.616 5.8495,-29.6562 6.9996,-39.0001 0.3723,-3.025 2.4122,-14.275 4.5331,-25 4.0128,-20.2913 8.4145,-49.0759 9.4811,-62 0.3404,-4.125 1.2703,-9.8408 2.0665,-12.7017 0.7961,-2.861 2.094,-8.711 2.8842,-13 0.7902,-4.2891 2.3664,-12.0733 3.5026,-17.2983 1.1363,-5.225 3.3887,-16.025 5.0054,-24 1.6168,-7.975 3.6295,-16.75 4.4727,-19.5 9.1171,-29.7337 -25.5321,-17.6765 -36.4108,12.6702 -1.248,3.4814 -4.2726,11.4494 -6.7214,17.7068 -8.0163,20.4839 -14.2184,40.8887 -17.7528,58.4056 -4.7745,23.6636 -13.0708,62.0695 -18.7324,86.7174 -13.1701,57.3365 -13.9108,65.9164 -5.9769,69.2339 5.864,2.452 37.1093,2.8467 39.9537,0.5048 z m 1706.60693,-6.2377 c 1.2738,-1.3745 3.006,-4.412 3.8493,-6.75 4.8101,-13.336 10.0174,-30.6885 12.2288,-40.751 2.6908,-12.2437 9.8173,-38.4708 14.6084,-53.762 6.1701,-19.6924 4.9146,-20.0055 -25.098,-6.2596 -20.6831,9.473 -23.0394,11.4614 -24.9223,21.0319 -0.6935,3.5252 -3.0622,10.9274 -5.2639,16.4495 -2.2016,5.5221 -5.3043,15.8902 -6.8949,23.0402 -1.5907,7.15 -3.7904,16.375 -4.8884,20.5 -3.9787,14.9483 -2.9277,17.2048 10.0226,21.5177 4.5647,1.5201 10.8076,3.8065 13.8732,5.0808 7.1868,2.9875 9.6439,2.9683 12.4852,-0.098 z m -2155.91153,-5.8509 c 6.6,-3.3924 14.475,-7.0092 17.500001,-8.0373 8.97999,-3.0521 18.96742,-17.6899 31.463,-46.1128 24.3497,-55.3866 24.7951,-49.5599 -4.9611,-64.8942 -12.96348,-6.6805 -18.70721,1.5903 -42.635821,61.3942 -4.95146,12.375 -11.04334,27.225 -13.53752,33 -14.89418,34.4859 -13.289,37.7368 12.17144,24.6501 z m 719.5,-1.2053 c 6.325,-2.3847 19.375,-6.881 29,-9.9918 27.1725,-8.7819 25.8936,-7.0863 25.2326,-33.453 -0.6127,-24.4382 1.2915,-56.4373 7.2301,-121.5 0.8032,-8.8 1.7307,-20.05 2.0612,-25 0.3304,-4.95 1.0468,-11.0116 1.592,-13.4703 1.7998,-8.1162 4.9593,-38.2779 5.5773,-53.2417 0.9653,-23.3759 0.1045,-24.6978 -19.7319,-30.299 -25.4535,-7.1872 -23.5339,-9.7761 -35.9693,48.511 -1.5841,7.425 -4.0638,18.9 -5.5103,25.5 -5.1489,23.4919 -7.3472,34.5842 -7.9777,40.2531 -0.3516,3.1608 -1.4812,9.7969 -2.5103,14.7469 -4.909,23.613 -7.0726,37.8059 -17.988,118 -6.7121,49.3138 -6.5818,49.588 18.9943,39.9448 z m -1534.1066,0.9914 c 10.22322,-8.6022 19.03874,-22.7716 17.09179,-27.472 -1.56136,-3.7694 -24.87271,-27.0502 -29.67582,-29.6368 -7.25195,-3.9054 -8.92942,5.3919 -4.36135,24.1726 1.204,4.95 3.0174,13.8541 4.02978,19.787 2.68752,15.7496 5.91733,19.0379 12.9156,13.1492 z m 111.81905,-3.4362 c 2.37513,-4.7198 1.76319,-48.5244 -0.71245,-51 -3.40062,-3.4006 -4.91532,-2.4048 -19.16596,12.6007 -14.76175,15.5437 -14.79073,16.7195 -0.74347,30.1695 12.57593,12.0413 17.67902,14.0778 20.62188,8.2298 z m 1059.78165,-3.9935 c 1.1979,-1.3236 3.5826,-10.1448 7.0963,-26.25 7.8544,-36.0001 12.7817,-56.5934 20.6385,-86.2565 2.1852,-8.25 5.9364,-22.875 8.3361,-32.5 2.3997,-9.625 6.2451,-22.45 8.5453,-28.5 8.5492,-22.486 5.4839,-27.9763 -9.3084,-16.672 -8.3134,6.3531 -15.4979,10.8808 -25.5852,16.124 -9.4713,4.923 -11.89,8.0591 -15.6923,20.3468 -1.2256,3.9607 -3.5876,9.9012 -5.2489,13.2012 -2.7874,5.5368 -10.2011,24.6714 -11.8173,30.5 -1.15,4.1476 -16.5805,45.2957 -18.0837,48.2232 -0.769,1.4978 -2.5772,5.9917 -4.0181,9.9863 -1.441,3.9947 -3.2004,8.1693 -3.9099,9.2768 -5.7667,9.002 -5.8927,25.8838 -0.232,31.0714 8.1397,7.4595 45.1157,16.0499 49.2796,11.4488 z m 886.07343,-8.7169 c 2.4753,-2.4753 3.6159,-5.687 9.3363,-26.2896 2.8251,-10.175 6.0452,-21.65 7.1558,-25.5 1.1106,-3.85 3.3751,-12.4 5.0322,-19 1.6571,-6.6 4.3208,-16.05 5.9193,-21 1.5985,-4.95 4.0741,-15.3 5.5013,-23 1.4272,-7.7 3.6534,-18.725 4.9471,-24.5 1.2937,-5.775 2.6142,-13.9919 2.9344,-18.2598 0.3202,-4.2679 1.0024,-9.6679 1.5159,-12 6.7972,-30.8709 4.7887,-33.4317 -20.1206,-25.6541 -25.2778,7.8926 -30.1948,15.2911 -34.8338,52.4139 -0.5498,4.4 -2.0709,13.4 -3.3801,20 -3.148,15.8696 -5.4143,31.5153 -6.5184,45 -0.5894,7.1987 -1.9207,14.2829 -3.8525,20.5 -10.2299,32.924 -9.0462,39.8539 8.7956,51.4909 12.7264,8.3006 14.4851,8.8811 17.5675,5.7987 z m 640.5748,-1.6583 c 15.7285,-7.1677 16.0268,-7.8714 23.3469,-55.0668 3.7676,-24.291 3.664,-25.2767 -3.3444,-31.8323 -14.1315,-13.2184 -16.1659,-11.5325 -22.6471,18.7678 -16.309,76.2465 -16.2891,76.7597 2.6446,68.1313 z m 199.4018,-11.0583 c 1.3621,-2.0788 5.5347,-21.7988 7.1607,-33.8418 1.2635,-9.3578 -9.6156,-8.0356 -33.0432,4.0159 -15.7422,8.0981 -14.271,11.9807 10.2316,27.0029 9.6104,5.892 13.2141,6.542 15.6509,2.823 z m -1821.90153,-8.0352 c 1.1482,-0.8042 3.772,-5.3832 5.8307,-10.1754 2.0588,-4.7923 7.2906,-15.8737 11.6264,-24.6253 4.3358,-8.7517 9.2665,-20.4853 10.9571,-26.0746 1.6907,-5.5894 4.0085,-12.4125 5.1507,-15.1625 11.1477,-26.8379 8.4571,-30.8281 -13.5279,-20.0623 -19.2,9.4021 -26.463,20.3116 -37.9895,57.0623 -1.38,4.4 -3.6748,11.0911 -5.0996,14.8691 -4.9966,13.2491 -3.0075,17.8044 10.134,23.2084 6.7016,2.7559 10.0041,3.0013 12.9181,0.9603 z m 567.4508,-4.3986 c 2.9737,-1.0234 8.655,-3.497 12.6253,-5.4968 3.9703,-1.9998 10.2262,-4.7681 13.9021,-6.1517 14.5216,-5.4659 16.2841,-8.151 14.2286,-21.6767 -2.678,-17.6219 -1.5696,-93.3181 1.674,-114.3261 2.6001,-16.8397 2.6999,-18.6262 1.5638,-27.9879 -0.8739,-7.2009 -0.9262,-11.7828 -0.1868,-16.3692 1.7236,-10.691 -1.3179,-14.2494 -20.4147,-23.8839 -20.761,-10.4741 -22.323,-8.0738 -26.5205,40.7531 -0.5438,6.325 -1.6491,18.025 -2.4564,26 -0.8072,7.975 -1.9418,21.7 -2.5214,30.5 -0.5795,8.8 -1.5299,22.075 -2.112,29.5 -0.5821,7.425 -1.1857,18.225 -1.3414,24 -0.1557,5.775 -0.7827,14.1 -1.3934,18.5 -1.5062,10.853 -1.6399,43.6985 -0.189,46.4096 1.4292,2.6704 5.8269,2.7472 13.1418,0.2296 z m 1117.53453,-4.7375 c 13.0167,-5.373 13.5388,-11.2588 1.5477,-17.4488 l -4.3243,-2.2324 -2.6757,1.9967 c -10.6821,7.9712 -6.204,22.4959 5.4523,17.6845 z M -17.763929,761.63959 c 11.3275004,-8.489 14.3506004,-14.0361 9.7882004,-17.9606 -6.4818004,-5.5754 -12.6937004,-0.9535 -17.6693004,13.1466 -3.0384,8.61 0.1869,10.5801 7.8811,4.814 z m 104.8044,-8.8102 c 5.6651,-5.6651 11.1628,-21.584 7.8881,-22.8406 -4.4614,-1.712 -25.5,13.113 -25.5,17.9689 0,6.5058 12.5157,9.9679 17.6119,4.8717 z m 976.099329,-4.2794 c 2.1611,-1.3734 4.1424,-7.6495 5.2947,-16.7717 0.6203,-4.9104 2.4084,-14.5529 3.9737,-21.4279 15.0198,-65.9699 13.8158,-75.4061 -8.4745,-66.4179 -19.3093,7.7862 -21.1618,10.2855 -23.5248,31.7392 -5.0565,45.9091 -4.0953,55.1175 6.7157,64.3365 11.226,9.573 12.9477,10.4913 16.0152,8.5418 z m -241.01733,-29.4539 c 19.5699,-11.227 17.7459,-5.9186 18.0996,-52.6707 l 0.2935,-38.7814 -2.2935,-2.1172 c -27.8535,-25.7136 -33.7564,-23.2106 -33.7793,14.3236 -0.01,13.75 -0.489,36.6612 -1.0682,50.9138 -1.4749,36.2969 0.2694,38.9328 18.7479,28.3319 z m 180.31423,-20.2555 c 3.6307,-4.3747 6.1486,-24.1906 3.4205,-26.9188 -3.8174,-3.8173 -25.42863,7.1519 -25.42863,12.9067 0,5.893 18.8082,17.8678 22.00813,14.0121 z m -117.99383,-17.3006 c 4.3099,-3.49 1.5105,-11.1896 -4.0684,-11.1896 -2.2763,0 -4.9459,3.6639 -4.9459,6.7882 0,5.8574 4.5017,8.0554 9.0143,4.4014 z"
       style="fill:#008080;fill-opacity:1" />
  </g>
</svg>
