<?xml version="1.0" encoding="UTF-8" standalone="no"?>
<!-- Created with Inkscape (http://www.inkscape.org/) -->

<svg
   xmlns:dc="http://purl.org/dc/elements/1.1/"
   xmlns:cc="http://creativecommons.org/ns#"
   xmlns:rdf="http://www.w3.org/1999/02/22-rdf-syntax-ns#"
   xmlns:svg="http://www.w3.org/2000/svg"
   xmlns="http://www.w3.org/2000/svg"
   xmlns:sodipodi="http://sodipodi.sourceforge.net/DTD/sodipodi-0.dtd"
   xmlns:inkscape="http://www.inkscape.org/namespaces/inkscape"
   width="2809.6895"
   height="604.32465"
   id="svg3499"
   version="1.1"
   inkscape:version="0.48.4 r9939"
   sodipodi:docname="Nouveau document 17">
  <defs
     id="defs3501" />
  <sodipodi:namedview
     id="base"
     pagecolor="#ffffff"
     bordercolor="#666666"
     borderopacity="1.0"
     inkscape:pageopacity="0.0"
     inkscape:pageshadow="2"
     inkscape:zoom="0.35"
     inkscape:cx="1404.8447"
     inkscape:cy="302.16233"
     inkscape:document-units="px"
     inkscape:current-layer="layer1"
     showgrid="false"
     fit-margin-top="0"
     fit-margin-left="0"
     fit-margin-right="0"
     fit-margin-bottom="0"
     inkscape:window-width="1411"
     inkscape:window-height="782"
     inkscape:window-x="52"
     inkscape:window-y="132"
     inkscape:window-maximized="0" />
  <metadata
     id="metadata3504">
    <rdf:RDF>
      <cc:Work
         rdf:about="">
        <dc:format>image/svg+xml</dc:format>
        <dc:type
           rdf:resource="http://purl.org/dc/dcmitype/StillImage" />
        <dc:title></dc:title>
      </cc:Work>
    </rdf:RDF>
  </metadata>
  <g
     inkscape:label="Calque 1"
     inkscape:groupmode="layer"
     id="layer1"
     transform="translate(1029.8447,-230.19985)">
    <path
       inkscape:connector-curvature="0"
       id="path3132"
       style="fill:#d40055;fill-opacity:1"
       d="m 1017.9976,384.21395 c 4.6506,-1.87488 12.2476,-4.56548 16.8821,-5.9791 17.8463,-5.44346 14.342,-13.78409 -16.0576,-38.21875 -25.49524,-20.49253 -28.77974,-18.91846 -24.17164,11.58387 5.2299,34.617 8.17474,38.73066 23.34714,32.61398 z m -77.77254,30.74621 c 25.3955,-9.29927 24.5872,-4.86323 13.9087,-76.33734 -0.7807,-5.225 -2.1191,-12.65 -2.9744,-16.5 -0.8552,-3.85 -1.8367,-11.95 -2.1811,-18 -0.8743,-15.36126 -5.1596,-18.71705 -34.6064,-27.09997 -28.107,-8.00147 -33.378,-5.86085 -29.2887,11.89445 0.7861,3.41304 2.1881,11.83052 3.1155,18.70552 3.7246,27.61006 11.5008,59.44612 21.6881,88.79274 9.0231,25.99302 9.3881,26.21612 30.3383,18.5446 z m -79.6867,37.72079 c 14.0322,-7.05528 14.8602,-9.2958 9.7262,-26.31939 -5.0003,-16.58012 -7.1135,-25.77949 -11.6553,-50.73874 -2.2519,-12.375 -4.9378,-25.875 -5.9687,-30 -2.8628,-11.45441 -7.121,-37.33379 -10.037,-61 -1.978,-16.0537 -2.621,-16.49061 -23.2383,-15.79068 -20.5667,0.69822 -22.6418,2.16777 -21.3866,15.14579 1.6676,17.24154 4.9491,42.8502 6.182,48.24303 0.7667,3.35398 2.3356,11.67898 3.4864,18.5 3.4766,20.60706 11.027,45.24269 22.5865,73.6958 14.4987,35.68765 14.8635,36.02791 30.3048,28.26419 z m -92.923,52.79543 c 41.3573,-19.66998 39.7277,-17.78621 32.1694,-37.18843 -2.8207,-7.24082 -5.8448,-16.76142 -6.7201,-21.15688 -0.8753,-4.39547 -1.7798,-8.29652 -2.0101,-8.669 -0.2302,-0.37249 -3.5766,-15.9012 -7.4365,-34.50825 -9.6797,-46.66174 -13.4911,-62.70759 -18.496,-77.86713 -5.4455,-16.49435 -9.6358,-36.12526 -9.2565,-43.36578 0.4044,-7.72132 -2.1812,-8.70471 -11.4647,-4.36041 -3.5718,1.67145 -9.6615,3.57324 -13.5327,4.2262 -11.7456,1.98114 -10.6838,-3.3282 -10.3351,51.67782 0.1669,26.32207 0.7057,51.0083 1.1974,54.8583 0.4917,3.85 1.5676,17.575 2.3909,30.5 0.8233,12.925 1.9319,27.55 2.4635,32.5 0.5317,4.95 1.2518,13.05 1.6003,18 0.5325,7.56438 3.9561,30.55512 6.0833,40.85182 1.8609,9.00778 3.3704,8.75888 33.3469,-5.49826 z m -1279.77493,20.21438 c 2.6049,-2.04901 4.328,-6.68853 5.2248,-14.06794 0.3008,-2.475 1.4992,-11.75182 2.6632,-20.61516 3.3759,-25.70696 0.4478,-28.12522 -18.6286,-15.38508 -3.8797,2.59107 -9.9547,6.09752 -13.5,7.79213 -18.5768,8.87952 -18.1173,14.66185 2.5243,31.76554 14.3369,11.87959 17.8278,13.56916 21.7163,10.51051 z m 1153.60333,42.05483 c 2.0406,-1.03248 6.9892,-3.05377 10.997,-4.49177 8.8902,-3.18987 35.7844,-18.97943 37.4195,-21.96902 1.7195,-3.14375 1.3475,-10.69995 -1.1239,-22.82703 -1.1954,-5.86578 -2.1112,-12.39078 -2.0352,-14.5 0.2386,-6.61901 -1.8897,-53.27114 -2.4734,-54.2155 -0.5838,-0.94462 -3.5851,-92.65017 -4.1276,-126.11945 -0.6239,-38.49119 0.2249,-37.60046 -30.4462,-31.95211 -30.2325,5.56757 -28.8848,4.32937 -30.9672,28.45211 -2.3886,27.6706 -1.878,108.78446 0.9254,147 0.5245,7.15 1.4386,21.325 2.0313,31.5 1.3919,23.89193 3.11,38.92479 7.0774,61.92254 1.5473,8.96931 5.1721,11.02071 12.7229,7.20023 z m -1072.50153,14.11108 c 2.0016,-2.2117 3.1621,-7.38898 5.2081,-23.23385 1.4995,-11.61297 3.7103,-24.95597 8.4504,-51 5.614,-30.84577 7.3374,-41.17915 10.0902,-60.5 0.6269,-4.4 1.7683,-10.7 2.5366,-14 3.8584,-16.57393 0.1404,-18.79049 -18.3328,-10.92926 -25.5155,10.85809 -33.3109,18.38124 -36.7112,35.42926 -0.9325,4.675 -2.526,11.65 -3.5411,15.5 -12.136,46.02727 -16.1516,74.13072 -11.744,82.18979 5.5556,10.15797 40.056,30.95051 44.0438,26.54406 z m 86.603,49.87483 c 1.2013,-1.20133 2.3115,-4.57587 3.0432,-9.25 0.6336,-4.04727 2.0135,-11.85868 3.0664,-17.35868 4.8123,-25.13658 6.07,-32.95542 7.4796,-46.5 0.8299,-7.975 1.9838,-19 2.5641,-24.5 0.5803,-5.5 1.7128,-12.925 2.5166,-16.5 1.3208,-5.8741 3.8377,-21.56635 7.9395,-49.5 0.8076,-5.5 2.3459,-14.5 3.4185,-20 10.1994,-52.30005 6.0387,-60.59292 -26.3364,-52.49262 -16.5916,4.15124 -18.1039,5.42457 -20.5526,17.3051 -0.6589,3.19687 -2.0711,7.78643 -3.1384,10.19903 -2.2733,5.13924 -6.311,21.0049 -7.8864,30.98849 -0.6075,3.85 -2.3762,12.175 -3.9303,18.5 -1.5542,6.325 -3.0997,13.525 -3.4344,16 -0.7364,5.44455 -3.9779,23.17536 -7.2214,39.5 -5.1549,25.94475 -6.7035,37.68262 -6.0999,46.23588 0.4736,6.71059 0.2108,9.30818 -1.4163,14.00162 -3.084,8.8959 -3.6098,17.46909 -1.2918,21.0625 8.0198,12.43214 45.0479,28.54074 51.28,22.30868 z m 890.70353,-4.34856 c 18.148,-8.39012 37.1943,-19.67737 41.7928,-24.76741 4.5224,-5.00573 4.6234,-6.06844 2.2323,-23.49271 -2.4486,-17.8429 -3.5922,-32.46991 -4.6127,-59 -0.5289,-13.75 -1.2466,-28.375 -1.5949,-32.5 -0.3482,-4.125 -0.7648,-15.825 -0.9257,-26 -0.1609,-10.175 -0.7836,-21.2 -1.3838,-24.5 -0.6001,-3.3 -1.1267,-10.725 -1.17,-16.5 -0.043,-5.775 -0.49,-12.975 -0.9926,-16 -0.5027,-3.025 -1.5792,-15.85 -2.3925,-28.5 -3.8055,-59.19811 -4.8779,-61.28456 -27.7043,-53.90528 -31.9958,10.34357 -30.9238,5.96982 -34.1686,139.40528 -0.4586,18.86065 2.3276,86.85559 4.3025,105 2.2554,20.7209 2.3346,25.2828 0.565,32.55247 -1.4151,5.81344 -1.5257,8.08573 -0.6295,12.93366 0.598,3.23466 1.0872,9.08354 1.0872,12.99753 0,12.06766 3.7037,12.39707 25.5948,2.27646 z m -360.0944,10.98988 c 2.2878,-1.97079 2.9043,-3.95054 4.968,-15.95352 1.2959,-7.53694 2.6451,-14.17108 2.9983,-14.74254 0.3531,-0.57146 1.5115,-10.58265 2.5741,-22.24709 1.0626,-11.66444 2.3881,-23.67544 2.9456,-26.69112 3.3427,-18.08215 0,-24.63161 -9.3062,-18.25025 -2.2991,1.57601 -6.6552,4.10646 -9.6802,5.62322 -8.6012,4.31271 -14.7376,9.25382 -19.8197,15.95918 -5.4211,7.15266 -15.3631,15.9494 -26.4867,23.43548 -11.6158,7.81742 -13.905,13.00248 -8.3695,18.95736 2.5166,2.70725 21.5192,16.00714 26.6468,18.65011 1.9091,0.98397 6.0382,4.23774 9.1759,7.2306 9.2884,8.85966 19.4862,12.22152 24.3536,8.02857 z m -200.017601,8.62306 c 18.5204002,-8.47483 20.7269002,-9.61831 23.8778,-12.37411 1.7267,-1.51014 6.7394,-5.30781 11.1394,-8.43925 4.4,-3.13144 11.15,-8.35568 15,-11.60942 3.85,-3.25374 9.025,-7.40524 11.5,-9.22557 7.8858,-5.79986 7.2461,-8.53793 -4.649,-19.90068 -24.2139,-23.13019 -35.1910998,-33.53367 -38.1970998,-36.20052 -1.7833,-1.58207 -4.16419997,-4.68349 -5.29089997,-6.89204 C -12.977241,517.8637 -27.015141,519.18961 -29.794441,545.12282 c -2.59903,24.25136 -4.27913,51.92567 -4.99843,82.33154 l -0.481,20.33155 2.5302,2.53019 c 3.21663,3.21661 5.45573,2.82286 18.88043,-3.32022 z m -248.222929,17.84465 c 3.96,-3.47794 10.2441,-34.22912 11.6926,-57.21771 0.953,-15.12521 2.5957,-27.10506 9.5299,-69.5 1.3494,-8.25 3.1653,-21.525 4.0353,-29.5 2.574,-23.59415 3.2962,-29.25674 4.3359,-34 1.6718,-7.62652 4.0086,-26.98436 4.5398,-37.6061 0.3357,-6.71385 1.1935,-11.91664 2.5555,-15.5 3.9486,-10.38903 2.8,-13.2347 -6.0169,-14.90679 -2.9533,-0.56007 -7.0809,-2.20428 -9.1725,-3.65379 -5.0338,-3.48839 -18.8981,-8.33332 -23.8467,-8.33332 -5.5428,0 -7.1316,3.09851 -9.8912,19.29006 -1.2383,7.26547 -3.3168,17.78521 -4.6189,23.3772 -1.3021,5.59199 -3.0127,14.15651 -3.8013,19.03227 -0.7886,4.87576 -2.1222,11.55049 -2.9635,14.83274 -1.5147,5.90951 -7.3205,33.00221 -10.172,47.46773 -0.8131,4.125 -2.1615,14.475 -2.9963,23 -0.8349,8.525 -2.1698,18.875 -2.9663,23 -3.8653,20.01539 -7.4548,53.41105 -7.4826,69.61514 -0.025,14.57048 0.5453,15.6352 10.661,19.90431 3.7501,1.58261 10.1875,4.68484 14.3055,6.89384 12.001,6.4377 18.0902,7.4778 22.2727,3.80442 z m 623.15163,12.12501 c 8.2336,-0.96362 9.5417,-3.10048 9.8235,-16.04727 0.1292,-5.9375 0.3345,-14.17045 0.4562,-18.29545 0.1217,-4.125 0.4826,-16.275 0.8021,-27 1.1009,-36.95304 3.0942,-40.92704 19.5067,-38.88905 3.575,0.44392 7.9625,0.55048 9.75,0.2368 12.3116,-2.16051 14.6632,2.90163 11.4522,24.65225 -2.9349,19.87981 -4.1039,54.16157 -2.0972,61.5 2.2921,8.38209 5.8501,9.22631 20.5331,4.87195 4.8741,-1.44543 12.0119,-3.39001 15.8619,-4.32129 10.8364,-2.62122 26.5796,-10.10178 29.1162,-13.83486 2.7131,-3.99296 3.5824,-37.70522 3.8863,-150.7158 0.1138,-42.35 0.5116,-90.725 0.884,-107.5 0.8578,-38.64807 -0.154,-41.28836 -13.0895,-34.15714 -3.1883,1.75772 -9.0947,4.76684 -13.1253,6.68693 -6.4595,3.07721 -12.1952,6.92271 -32.2688,21.63485 -2.7501,2.01556 -8.0158,5.43391 -11.7015,7.59635 -34.0026,19.94933 -35.6662,21.20032 -36.5955,27.51845 -2.1123,14.36197 -2.4986,29.07667 -1.4132,53.82958 1.5297,34.88809 -1.1602,39.50773 -23.6927,40.68969 -21.9698,1.15245 -24.7586,-3.76072 -22.6029,-39.82062 1.4898,-24.92042 0.6966,-28.34784 -6.1623,-26.62637 -4.1,1.02904 -20.6348,12.63369 -28.5561,20.04168 -4.2805,4.00304 -10.4919,8.72222 -13.803,10.48706 -3.3112,1.76485 -8.2264,5.03177 -10.9227,7.25982 -2.6962,2.22806 -7.1637,5.55333 -9.9276,7.38951 -5.8885,3.91186 -8.386,7.72913 -10.0738,15.39669 -0.6747,3.06544 -2.1499,9.17352 -3.2781,13.57352 -1.1282,4.4 -3.0104,13.4 -4.1826,20 -1.1722,6.6 -3.5622,17.85 -5.3111,25 -3.0626,12.52092 -3.1708,13.68176 -2.9347,31.5 0.2051,15.47293 -0.093,20.13625 -1.821,28.5 -5.2465,25.39215 -3.0035,32.5 10.2558,32.5 5.9896,0 8.3015,0.55676 15.1481,3.64811 25.0184,11.29611 33.3042,3.39522 34.0693,-32.48653 0.1856,-8.7037 0.9679,-17.57136 1.9251,-21.82217 0.8869,-3.93832 2.2425,-11.39473 3.0126,-16.5698 2.9283,-19.67848 5.6342,-21.21982 26.6142,-15.15959 15.3456,4.43266 16.7607,10.04413 10.5643,41.88998 -11.4195,58.68964 -9.9387,61.50502 29.898,56.84272 z m -468.44313,9.16393 c 16.695599,-3.51204 27.567299,-9.49223 29.024199,-15.96542 1.2431,-5.52363 1.3504,-62.85485 0.1636,-87.41669 -0.7761,-16.06097 -0.6918,-22.83694 0.3984,-32 0.7607,-6.3935 1.3971,-14.84424 1.4142,-18.77942 0.017,-3.93519 0.7293,-13.14504 1.5825,-20.46635 3.3712,-28.9269 -6.3704,-46.15496 -29.075999,-51.42073 -12.6491,-2.93352 -18.2421,4.99538 -19.6749,27.89214 -1.2592,20.12155 -4.2881,25.46473 -13.7298,24.22022 -2.5138,-0.33134 -8.1706,-0.86564 -12.5706,-1.18733 -9.8174,-0.71776 -10.7079,-1.43903 -13.8866,-11.24854 -3.6385,-11.22791 -3.7169,-11.9207 -4.5177,-39.90533 -0.8946,-31.26308 -2.3138,-35.26754 -12.6193,-35.60714 -5.9393,-0.19572 -7.0455,2.21508 -10.4675,22.81285 -1.6388,9.8642 -4.3079,24.7142 -5.9315,33 -4.1264,21.05896 -7.72,42.79263 -9.601,58.06509 -2.0924,16.98953 -3.8956,31.35085 -6.4037,51 -10.0093,78.41798 -9.6733,88.23458 3.147,91.96155 21.1991,6.16273 36.7803,5.39627 36.7803,-1.80929 0,-2.81729 3.0325,-30.24687 3.9416,-35.65226 0.5087,-3.025 1.4512,-11.125 2.0945,-18 2.8168,-30.10535 5.3203,-35.76574 16.9639,-38.35604 3.575,-0.79532 8.6132,-2.26576 11.1959,-3.26766 l 4.6959,-1.82163 5.8041,3.97446 c 10.0424,6.87671 10.8434,11.05827 7.2736,37.97087 -2.6839,20.23412 -4.428,54.97879 -2.9401,58.5709 2.0594,4.97184 5.917,5.75429 16.939,3.43575 z M 1512.2543,792.85751 c 3.67,-2.4505 3.8584,-4.8058 3.5468,-44.33577 -0.4146,-52.57749 -1.0834,-50.90577 20.3529,-50.87322 25.69,0.039 31.1678,7.85758 32.5603,46.4743 1.6877,46.80419 1.1847,45.00399 12.3726,44.28599 6.2867,-0.4035 8.4447,-1.1137 16.6451,-5.4786 5.1821,-2.7583 12.122,-6.056 15.422,-7.3284 3.3,-1.2723 8.925,-4.1921 12.5,-6.4885 3.575,-2.2964 7.7751,-4.9562 9.3335,-5.9106 6.7064,-4.1074 6.761,-10.47949 0.1764,-20.57989 -23.3951,-35.88713 -30.7606,-46.9727 -39.1284,-58.8913 -6.9427,-9.88881 -5.6381,-12.77231 10.6185,-23.47098 21.0959,-13.88346 23.7529,-13.41654 37,6.50224 34.077,51.23921 43.1418,54.86272 63.0854,25.21725 32.9498,-48.9789 37.0428,-41.66296 -37.0854,-66.28777 -6.325,-2.10112 -17.35,-6.37324 -24.5,-9.4936 -7.15,-3.12036 -14.6355,-6.37133 -16.6344,-7.22436 -8.2013,-3.49987 -5.9846,-21.09122 3.2994,-26.18374 1.6722,-0.91726 5.9921,-3.41412 9.5998,-5.54858 8.8635,-5.24396 16.9601,-4.93936 34.8161,1.30982 17.0541,5.96853 20.7724,6.97354 31.4191,8.49228 5.225,0.74535 12.5087,2.17748 16.186,3.18251 17.5272,4.79037 17.4675,-9.25914 -0.196,-46.10377 -13.9602,-29.11982 -27.5023,-43.33589 -36.7798,-38.61012 -2.0406,1.03943 -10.4602,3.99857 -18.7102,6.57586 -19.3379,6.04113 -30.8016,10.37181 -52.7179,19.9153 -8.9921,3.91563 -16.0196,1.99404 -19.7988,-5.41374 -1.073,-2.10322 -4.3871,-5.92733 -7.3647,-8.49804 -14.2199,-12.27655 -11.9205,-16.81612 13.8901,-27.42189 57.0287,-23.4335 61.2182,-29.54534 30.5923,-44.62994 -4.9211,-2.42387 -10.2696,-5.96327 -12.501,-8.27267 -7.0242,-7.26965 -27.4673,-14.685 -33.5447,-12.16767 -4.4845,1.85756 -12.5404,10.16733 -21.4311,22.10665 -4.2661,5.72894 -10.7623,14.46626 -14.4361,19.41626 -15.447,20.81332 -23.3571,26.35512 -30.6881,21.5 -1.65,-1.09275 -4.575,-1.9923 -6.5,-1.99899 -29.4207,-0.10227 -25.1499,-28.40742 8.9777,-59.50101 19.0522,-17.35836 19.4011,-16.52229 -10.4777,-25.10497 -7.15,-2.05383 -14.777,-4.61272 -16.9489,-5.68642 -4.3606,-2.15571 -25.1869,-4.37472 -30.936,-3.29618 -4.1991,0.78776 -7.512,4.34766 -12.2998,13.21705 -2.1168,3.92122 -6.4338,10.89622 -9.5935,15.5 -3.1596,4.60379 -8.7229,12.87052 -12.3628,18.37052 -11.5371,17.43272 -11.711,17.52302 -34.2905,17.80288 -28.1463,0.34886 -30.2026,-6.41154 -9.6433,-31.70457 26.8071,-32.97957 27.893,-40.0932 6.9806,-45.73225 -23.5079,-6.33895 -53.4945,-2.75351 -59.7399,7.14297 -24.6009,38.98274 -24.6714,39.07681 -30.5816,40.84758 -19.453,5.82826 -35.2928,-14.75573 -22.9286,-29.79611 17.9232,-21.80284 19.0473,-21.1466 -34.1557,-19.94034 -18.5449,0.42046 -26.3728,0.99459 -32.2051,2.36204 -7.2899,1.7092 -8.0283,1.71585 -13.7038,0.1234 -5.4452,-1.52785 -6.8103,-1.54892 -14.7949,-0.22831 -4.8379,0.80016 -12.1712,1.74411 -16.2962,2.09765 -54.1465,4.64082 -59.682,7.74965 -47.2302,26.52506 3.1004,4.675 9.1154,14.125 13.3666,21 15.1046,24.42708 24.4152,36 28.9624,36 2.0135,0 29.9012,-26.97005 29.9012,-28.91726 0,-2.13052 5.2883,-6.98369 8.277,-7.59599 1.7727,-0.36316 5.9934,-1.49359 9.3794,-2.51207 6.8025,-2.04615 8.5941,-1.79353 15.3436,2.16357 2.475,1.45103 6.2378,2.94336 8.3617,3.31627 14.1272,2.4804 11.1951,13.82509 -7.977,30.86334 -36.3682,32.32053 -41.0993,43.13246 -26.0413,59.51181 3.0499,3.31757 6.4547,7.81441 7.5661,9.99298 2.9293,5.74194 8.3835,11.17833 11.2086,11.17209 2.8261,-0.006 3.8724,-0.6554 21.0939,-13.08683 11.5999,-8.37352 19.2323,-13.18104 37.5915,-23.67811 9.5935,-5.48519 20.3027,-1.9799 25.5185,8.35257 0.8558,1.6953 3.1584,5.00037 5.117,7.34461 4.5972,5.50254 4.4863,7.73181 -0.7079,14.23135 -2.3479,2.93792 -5.5257,7.03557 -7.0618,9.10588 -1.536,2.07032 -5.1275,5.47763 -7.981,7.57181 -2.8536,2.09417 -9.4633,6.91247 -14.6883,10.70733 -22.9238,16.64929 -28.4007,21.70338 -27.64,25.5065 1.7321,8.6608 36.1814,53.40028 42.7147,55.47386 3.4238,1.08667 7.887,-2.55055 15.9563,-13.0035 4.4349,-5.74483 9.7652,-11.92454 11.8452,-13.73268 2.08,-1.80814 6.7779,-7.39301 10.4398,-12.41083 7.3328,-10.04792 8.7692,-10.95419 18.5683,-11.71544 7.5646,-0.58766 9.8483,0.27522 13.0344,4.92501 1.3101,1.91199 5.0351,5.77479 8.2778,8.58398 14.9341,12.93759 9.7351,24.52248 -27.2986,60.82975 -15.5416,15.23666 -18.5512,21.81104 -13.4356,29.34926 5.7385,8.45615 21.1389,24.93464 30.149,32.25946 5.3388,4.3402 12.3171,10.24064 15.5073,13.11207 8.988,8.08981 14.3637,7.59519 16.5009,-1.51825 0.3485,-1.4864 2.3603,-6.97754 4.4706,-12.20254 3.869,-9.57986 12.6322,-33.31516 14.8583,-40.2442 0.6616,-2.0593 3.2205,-6.69092 5.6866,-10.29247 2.466,-3.60155 5.1438,-8.41932 5.9507,-10.70616 2.5557,-7.24369 3.6758,-7.89678 12.3424,-7.19626 10.7046,0.86525 13.0178,1.79749 19.5539,7.88039 l 5.7889,5.38748 -0.4912,5.11202 c -0.3113,3.23951 -1.8801,7.75801 -4.283,12.33561 -18.6675,35.56251 -21.6122,45.23674 -21.0706,69.22358 0.1615,7.15 0.3566,13.3657 0.4337,13.8127 0.3455,2.0029 13.5561,6.6152 24.6402,8.6028 24.1806,4.336 33.7937,6.2926 37.3566,7.6033 3.9837,1.4655 11.996,1.8828 13.7437,0.7159 z m 47.8997,40.6057 c -2.2,-0.5273 -5.8,-0.7632 -8,-0.5243 -2.2,0.2388 -18.625,-0.015 -36.5,-0.5639 l -32.5,-0.9981 -6.9398,-2.9965 c -3.8168,-1.648 -10.5668,-3.8479 -15,-4.8885 -14.5041,-3.4048 -50.4351,-17.6543 -62.5602,-24.8101 -3.575,-2.1099 -11.9,-7.0245 -18.5,-10.9213 -33.3203,-19.6735 -64.9418,-46.46689 -78.3402,-66.37895 -2.8649,-4.25769 -7.1369,-10.10821 -9.4932,-13.00117 -7.2932,-8.95413 -15.0792,-19.83623 -21.4902,-30.03581 -6.2439,-9.93383 -14.5833,-21.20587 -29.0174,-39.22176 -7.1233,-8.89083 -11.148,-14.28725 -24.6118,-33 -1.9786,-2.75 -7.0443,-10.175 -11.2571,-16.5 -4.2128,-6.325 -9.3909,-13.69608 -11.5068,-16.38017 -2.1159,-2.6841 -5.607,-7.8591 -7.758,-11.5 -2.151,-3.64091 -6.8606,-10.44483 -10.4657,-15.11983 -3.605,-4.675 -9.8492,-13.225 -13.8759,-19 -12.7214,-18.24481 -30.3349,-41.57523 -36.6408,-48.53359 -3.345,-3.69105 -7.7405,-9.69347 -9.7678,-13.3387 -2.0273,-3.64524 -5.3668,-9.24362 -7.4212,-12.44085 -2.0543,-3.19723 -4.4976,-8.14723 -5.4296,-11 -3.8814,-11.88151 -18.3019,-33.59219 -25.4576,-38.32762 -6.3465,-4.1999 -19.1502,-3.14624 -30.3467,2.49734 -4.466,2.25107 -9.92,4.38957 -12.12,4.75224 -2.2,0.36266 -6.25,1.47899 -9,2.48074 -2.75,1.00174 -8.2167,2.48265 -12.1483,3.2909 -4.4783,0.92063 -9.8944,3.02651 -14.50004,5.63785 -4.0434,2.29258 -11.8517,6.30296 -17.3517,8.91197 -5.5,2.609 -13.9639,7.02846 -18.8086,9.821 -4.8447,2.79255 -11.1447,5.62823 -14,6.30153 -6.0227,1.42019 -16.8103,6.62208 -24.6914,11.90643 -8.8035,5.90285 -15.8507,9.61297 -25.7868,13.57604 -5.1078,2.03725 -10.8453,4.77523 -12.75,6.08441 -1.9048,1.30917 -5.1157,3.51525 -7.1353,4.90241 -2.0197,1.38715 -6.1822,3.23349 -9.25,4.10297 -3.0679,0.86948 -8.2779,3.05497 -11.5779,4.85664 -3.3,1.80168 -7.125,3.6066 -8.5,4.01094 -4.7232,1.38891 -28.5041,12.7202 -34.5,16.43878 -16.4784,10.21973 -31.781,18.91553 -43.2745,24.59103 -6.999,3.45613 -17.6624,9.24928 -23.6963,12.87367 -6.0339,3.62439 -13.2339,7.33628 -16,8.24863 -7.6728,2.53078 -19.5405,8.12648 -23.2728,10.97324 -1.8376,1.40158 -8.1595,5.15371 -14.0487,8.33806 -5.8892,3.18435 -18.9007,10.68442 -28.9144,16.66683 -40.3916,24.13094 -53.7437,31.70694 -74.6779,42.37233 -12.0365,6.13228 -23.5115,12.17426 -25.5,13.42663 -1.9885,1.25237 -7.4404,3.87385 -12.1154,5.82552 -4.675,1.95168 -12.812,5.34674 -18.0821,7.5446 -5.2702,2.19785 -11.3452,4.88766 -13.5,5.97734 -5.5133,2.78803 -24.6533,9.40394 -39.4179,13.62516 -6.875,1.96556 -20.6,6.08847 -30.5,9.162 -27.9001,8.66179 -41.2326,10.75768 -79,12.41888 -12.65,0.55641 -27.275,1.4948 -32.5,2.08531 -6.7494,0.76278 -12.7003,0.76466 -20.553,0.006 -6.0791,-0.58693 -15.5291,-1.08041 -21,-1.09662 -15.8439,-0.0469 -43.2589,-4.90344 -60.947,-10.79662 -34.9952,-11.65943 -73.024,-28.12262 -97.5,-42.20909 -3.575,-2.05749 -12.35,-6.37877 -19.5,-9.60285 -11.3212,-5.10498 -13.7965,-6.66907 -19.1683,-12.11197 -8.100701,-8.20799 -11.292801,-8.47994 -19.993801,-1.70332 -3.2109,2.50067 -9.2129,7.08305 -13.3379,10.18307 -7.5019,5.6378 -9.2403,7.08845 -27,22.52976 -25.5914,22.25072 -52.8199,38.67555 -76.50003,46.14658 -4.4,1.38819 -12.5,4.37467 -18,6.63663 -9.1428,3.7601 -17.7529,6.07071 -38.5,10.33181 -27.698899,5.68888 -45.083999,6.99396 -93.999999,7.05649 l -34.5,0.0441 -9.0147,-3.60792 c -4.9581,-1.98437 -14.5022,-4.78648 -21.2092,-6.22692 -12.0594,-2.58995 -16.4551,-4.2692 -42.1686,-16.10903 -6.8158,-3.13838 -17.5426,-7.48199 -23.8372,-9.65247 -6.2947,-2.17049 -15.5681,-6.01931 -20.6076,-8.55295 -5.0395,-2.53364 -12.6349,-6.09482 -16.8787,-7.91374 -4.2438,-1.81891 -10.3188,-4.97479 -13.5,-7.01306 -3.1812,-2.03827 -9.384,-5.50414 -13.784,-7.70193 -11.8,-5.89408 -23.8043,-13.59788 -34.3169,-22.02295 -5.1243,-4.10675 -12.0993,-8.94633 -15.5,-10.75463 -3.4007,-1.8083 -8.3934,-5.0305 -11.0948,-7.16045 -2.7014,-2.12994 -8.7764,-6.13827 -13.5,-8.90739 -4.7236,-2.76912 -12.6383,-8.08508 -17.5883,-11.81324 -4.95,-3.72816 -10.575,-7.57819 -12.5,-8.55563 -6.7346,-3.4195 -18.5562,-11.93254 -25.0886,-18.06683 -3.6237,-3.40286 -8.5737,-7.4298 -11,-8.94874 -6.406,-4.01038 -21.3893,-15.85872 -28.9445,-22.8885 -26.9956,-25.11816 -43.7279,-31.04125 -57.1949,-20.24648 -12.5195,10.03523 -34.429,25.25312 -48.272,33.52867 -16.0005,9.56529 -17.3737,10.61671 -41.9606,32.12862 -12.5024,10.93873 -17.3776,14.55896 -22.5,16.70832 -20.0259,8.40271 -36.469,18.64664 -47.0468,29.30979 -4.129,4.16235 -10.1108,9.05742 -13.2927,10.87793 -3.1819,1.82051 -13.1173,8.77851 -22.0787,15.46222 -8.9614,6.6837 -21.1635,15.52719 -27.1158,19.65219 -13.4205,9.30049 -21.625,15.52136 -38.5119,29.2006 -26.0385,21.09255 -30.3693,22.41145 -40.8238,12.43261 -8.1798,-7.80773 -9.081,-12.63027 -3.796,-20.31333 1.8555,-2.69749 4.3584,-6.8346 5.5618,-9.19356 1.2035,-2.35897 4.6216,-6.61492 7.5958,-9.45767 14.5106,-13.86919 14.8108,-12.16896 -7.0313,-39.83537 -2.75,-3.4833 -8.4335,-9.93328 -12.6298,-14.33328 -4.1964,-4.4 -8.4121,-9.575 -9.3681,-11.5 -0.956,-1.925 -2.8101,-4.93248 -4.1202,-6.68328 -6.2542,-8.35823 -2.2648,-13.28788 15.9879,-19.75605 18.8985,-6.69699 20.6107,-6.44544 28.4286,4.17663 2.7375,3.71949 7.3903,9.55254 10.3394,12.96234 2.9492,3.40981 9.5613,11.17608 14.6936,17.25839 14.455,17.13082 15.534,17.18125 36.6168,1.71149 18.5628,-13.62061 19.2461,-15.72141 8.7546,-26.91651 -3.7384,-3.98915 -8.3256,-9.27801 -10.1939,-11.75301 -1.8682,-2.475 -5.5033,-6.7761 -8.0779,-9.55801 -2.5746,-2.78191 -5.4807,-6.60427 -6.458,-8.49413 -0.9773,-1.88986 -3.4501,-5.68876 -5.4952,-8.44199 -6.5111,-8.76574 -5.8296,-12.92588 2.7177,-16.58969 2.4543,-1.05203 8.1393,-4.55889 12.6334,-7.79302 13.911,-10.01094 14.524,-10.04949 20.7074,-1.30233 2.208,3.12354 6.2513,8.82917 8.985,12.67917 2.7338,3.85 7.0865,11.275 9.6728,16.5 12.0588,24.36187 15.5311,24.34554 47.4719,-0.22328 12.1757,-9.36555 11.0112,-14.17843 -10.3534,-42.79156 -11.5979,-15.53218 -13.0032,-23.98467 -3.9878,-23.98467 1.0759,0 6.1629,-2.7622 11.3043,-6.13822 14.9819,-9.83763 18.7357,-9.64619 25.6372,1.30745 23.7783,37.73953 24.3,37.95379 48.2337,19.80955 4.125,-3.12718 10.2,-7.3926 13.5,-9.4787 20.1639,-12.74668 21.7566,-18.15797 7.7594,-26.36327 -3.7177,-2.17936 -9.5005,-6.17043 -12.8506,-8.86905 -3.3502,-2.69862 -8.7502,-5.97497 -12,-7.28078 -10.9084,-4.38308 -30.5899,-13.96239 -38.7851,-18.87738 -27.8181,-16.68346 -37.3121,-18.38841 -36.7848,-6.60588 0.3169,7.08387 -1.5528,9.87128 -7.593,11.31955 -2.0603,0.49399 -9.4349,2.31084 -16.388,4.03745 -21.5052,5.3402 -24.1637,4.07201 -31.7868,-15.16319 -6.6155,-16.69287 -18.6638,-40.2718 -21.6585,-42.38628 -3.2343,-2.28369 -22.333,-9.26997 -32.4126,-11.8565 -3.575,-0.91738 -8.1879,-2.12481 -10.2508,-2.68318 -8.9687,-2.42759 -9.3664,13.49406 -0.7666,30.69363 7.2221,14.44426 5.3939,18.13476 -14.9826,30.2455 -12.7778,7.59442 -17.5233,7.60798 -19.8327,0.0567 -15.0478,-49.2042 -26.2293,-79.45146 -30.375,-82.16777 -2.4433,-1.60095 -24.5727,-6.59963 -29.2168,-6.59963 -1.4034,0 -6.7195,-1.32417 -11.8136,-2.94261 -5.0941,-1.61843 -13.9869,-4.12056 -19.76193,-5.56028 -5.7751,-1.43972 -12.0975,-3.66232 -14.0499,-4.93911 -1.9524,-1.27678 -5.8566,-3.49038 -8.676,-4.9191 -6.3671,-3.22645 -6.9033,-4.86201 -4.3277,-13.20079 1.1294,-3.65683 2.0536,-8.39718 2.0536,-10.53411 0,-2.13694 1.5577,-8.0246 3.4617,-13.0837 6.5157,-17.31307 9.7779,-18.04687 31.63343,-7.11563 15.3135,7.65915 27.0126,12.6281 38.4049,16.31169 3.8499,1.24487 9.5679,3.54708 12.7066,5.11604 7.9428,3.97044 18.7118,7.43396 29.1753,9.38334 6.1013,1.1367 12.6368,3.37282 20.8758,7.14267 6.5966,3.01835 18.3497,7.75986 26.118,10.53669 7.7684,2.77682 16.5993,6.28805 19.6243,7.80273 3.025,1.51469 7.0542,3.09072 8.9538,3.50229 1.8996,0.41158 9.0996,2.98738 16,5.72401 13.529,5.36546 28.0998,10.72823 45.5462,16.76326 6.05,2.0928 15.05,5.7001 20,8.01622 4.95,2.31612 13.3543,5.946 18.6763,8.06641 5.322,2.1204 15.897,6.86135 23.5,10.53545 7.603,3.6741 17.1987,8.14685 21.3237,9.93945 9.4008,4.0853 31.6282,14.88635 43.579,21.17647 4.9934,2.62823 11.949,6.07647 15.4567,7.66274 4.4971,2.03362 8.3249,4.87416 12.9805,9.63246 15.4135,15.75356 15.2211,15.79891 66.7374,-15.72967 20.9338,-12.81178 72.6385,-40.08675 86.0951,-45.41646 4.2082,-1.66672 9.9939,-4.36604 12.857,-5.9985 2.8632,-1.63246 9.6132,-4.45824 15,-6.27951 11.5,-3.8881 38.7932,-15.32418 45.397,-19.02172 12.0546,-6.74948 29.7882,-10.31282 57.8973,-11.63373 11.275,-0.52984 21.0992,-1.1824 21.8317,-1.45013 0.7324,-0.26774 9.7067,-0.0301 19.9428,0.5281 10.2361,0.55819 24.9369,1.19176 32.6683,1.40792 16.0948,0.45 21.9418,1.53778 32.5176,6.04962 10.0582,4.29103 21.9529,8.15665 30.6759,9.96925 3.925,0.8156 9.775,2.66284 13,4.10497 3.225,1.44213 8.8854,3.72433 12.5786,5.07155 14.714,5.3674 31.2574,14.1109 41.6388,22.00684 19.5992,14.9069 24.6601,18.50496 29.646299,21.07744 2.75,1.41877 8.15,4.67973 12,7.24657 3.85,2.56684 9.25,5.95154 12,7.52154 2.75,1.57001 8.6,6.30519 13,10.52263 7.5327,7.22013 17.1025,15.46183 32.3826,27.88834 3.63963,2.9599 13.60983,11.9599 22.1561302,20 8.54630003,8.0401 20.6962998,18.64174 26.9999998,23.55921 6.3037,4.91747 16.4347,13.46747 22.5133,19 6.0786,5.53253 15.3651,13.79478 20.6368,18.36054 5.2716,4.56577 11.5125,10.58752 13.8686,13.38168 8.2679,9.80526 16.1361,10.74793 25.052801,3.00151 2.4144,-2.09748 8.4398,-6.43116 13.3898,-9.63039 4.95,-3.19924 12.825,-9.50767 17.5,-14.01874 4.675,-4.51107 10.075,-9.25536 12,-10.54286 3.3187,-2.21967 9.8856,-7.28429 27.0662,-20.87425 4.4688,-3.5349 11.9921,-8.05684 18.3778,-11.04624 12.1675,-5.69606 27.3329,-16.39789 49.1866,-34.70967 3.3722,-2.82567 8.5013,-6.32796 11.3979,-7.78286 2.8967,-1.45491 6.8878,-3.90864 8.8691,-5.45272 7.6982,-5.99938 38.9591,-26.97313 45.6024,-30.59582 3.85,-2.09948 9.7,-5.71539 13,-8.03536 3.3,-2.31998 7.8058,-5.13528 10.0128,-6.25624 2.2071,-1.12095 6.4821,-4.0484 9.5,-6.50543 9.5434,-7.76966 26.3489,-18.80407 45.9872,-30.19499 3.025,-1.7546 8.5209,-5.40617 12.2132,-8.1146 8.6123,-6.31749 13.641,-9.55006 33.712,-21.67084 9.0339,-5.4555 17.8089,-10.95873 19.5,-12.2294 4.8239,-3.62457 22.2649,-11.97213 31.1283,-14.89852 4.4294,-1.46245 11.6294,-4.71098 16,-7.21897 8.3452,-4.78875 34.9587,-16.55595 54.4465,-24.07358 6.325,-2.43994 15.1,-6.62168 19.5,-9.29275 4.4673,-2.71193 11.3119,-5.79898 15.5,-6.99083 17.4274,-4.95947 29.2426,-8.51971 41,-12.35445 11.1688,-3.64277 13.7048,-4.10619 23.8138,-4.35165 7.2,-0.17482 13.9267,-0.9745 18.5,-2.19929 20.2348,-5.41918 30.2048,-7.15987 40.1862,-7.01621 7.8788,0.1134 12.1478,-0.41102 20.1255,-2.4723 28.9997,-7.49299 79.2165,-9.37331 107.3093,-4.01811 4.9192,0.93774 13.2476,1.60305 19.5652,1.56298 18.2752,-0.11591 30.0765,1.93524 44.7898,7.78482 7.0344,2.79667 17.6094,6.21145 23.5,7.58841 22.0871,5.16297 50.3426,16.41455 67.2102,26.76363 3.575,2.19343 8.975,5.34626 12.00004,7.00627 17.257,9.47004 58.7176,46.41768 77.4548,69.02387 8.0521,9.71465 7.8065,9.68118 40.5452,5.5266 8.525,-1.08183 22.925,-2.85105 32,-3.93159 9.075,-1.08054 17.625,-2.22785 19,-2.54958 2.5562,-0.5981 14.7854,-1.74286 37,-3.46348 23.3538,-1.80886 72.2776,-2.26051 100.5,-0.92778 14.85,0.70126 34.2,1.39064 43,1.53196 8.8,0.14132 21.625,0.75995 28.5,1.37472 7.1035,0.63521 17.8965,0.83408 25,0.46065 10.7375,-0.56447 13.628,-0.36949 20.5,1.38276 4.4,1.12194 13.625,3.01477 20.5,4.20628 21.1805,3.67082 35.9699,7.03264 48.8705,11.10885 6.8038,2.14981 16.9288,4.82153 22.5,5.93717 64.4975,12.9157 126.5214,37.78066 153.8865,61.69202 15.8146,13.81871 34.9809,33.0269 41.1938,41.28393 2.69,3.575 7.8821,9.65 11.538,13.5 23.6041,24.85712 42.2652,59.12736 48.8475,89.70611 11.9793,55.65062 6.731,103.10567 -13.295,120.21442 -2.9382,2.51021 -6.5892,6.705 -8.1134,9.32175 -3.9066,6.70713 -19.6747,23.16146 -30.1096,31.42004 -4.8501,3.83853 -11.7433,9.98481 -15.3183,13.65841 -7.8542,8.07076 -17.0655,15.58456 -28.7649,23.46366 -4.8043,3.2356 -11.6681,8.4864 -15.2528,11.6684 -13.8231,12.2703 -39.462,26.6047 -55.4823,31.0194 -9.5381,2.6284 -26.5897,8.2596 -35.1706,11.615 -3.3938,1.327 -6.5438,2.3676 -7,2.3124 -0.4561,-0.055 -2.6294,-0.5319 -4.8294,-1.0592 z" />
  </g>
</svg>
