<?xml version="1.0" encoding="UTF-8" standalone="no"?>
<!-- Created with Inkscape (http://www.inkscape.org/) -->

<svg
   xmlns:dc="http://purl.org/dc/elements/1.1/"
   xmlns:cc="http://creativecommons.org/ns#"
   xmlns:rdf="http://www.w3.org/1999/02/22-rdf-syntax-ns#"
   xmlns:svg="http://www.w3.org/2000/svg"
   xmlns="http://www.w3.org/2000/svg"
   xmlns:sodipodi="http://sodipodi.sourceforge.net/DTD/sodipodi-0.dtd"
   xmlns:inkscape="http://www.inkscape.org/namespaces/inkscape"
   width="2809.6895"
   height="604.32465"
   id="svg3499"
   version="1.1"
   inkscape:version="0.48.4 r9939"
   sodipodi:docname="3.pre-mirna.svg">
  <defs
     id="defs3501" />
  <sodipodi:namedview
     id="base"
     pagecolor="#ffffff"
     bordercolor="#666666"
     borderopacity="1.0"
     inkscape:pageopacity="0.0"
     inkscape:pageshadow="2"
     inkscape:zoom="0.35"
     inkscape:cx="1404.8447"
     inkscape:cy="302.16233"
     inkscape:document-units="px"
     inkscape:current-layer="layer1"
     showgrid="false"
     fit-margin-top="0"
     fit-margin-left="0"
     fit-margin-right="0"
     fit-margin-bottom="0"
     inkscape:window-width="1411"
     inkscape:window-height="782"
     inkscape:window-x="56"
     inkscape:window-y="128"
     inkscape:window-maximized="0" />
  <metadata
     id="metadata3504">
    <rdf:RDF>
      <cc:Work
         rdf:about="">
        <dc:format>image/svg+xml</dc:format>
        <dc:type
           rdf:resource="http://purl.org/dc/dcmitype/StillImage" />
        <dc:title></dc:title>
      </cc:Work>
    </rdf:RDF>
  </metadata>
  <g
     inkscape:label="Calque 1"
     inkscape:groupmode="layer"
     id="layer1"
     transform="translate(1029.8447,-230.19985)">
    <path
       style="fill:#d40055;fill-opacity:1"
       d="M 1822.25 0 C 1799.4082 0.21201897 1775.117 2.7033262 1758.125 7.09375 C 1750.1473 9.15503 1745.8788 9.6759 1738 9.5625 C 1728.0186 9.41884 1718.0473 11.14332 1697.8125 16.5625 C 1693.2392 17.78729 1686.5125 18.60643 1679.3125 18.78125 C 1669.2035 19.02671 1666.6688 19.48223 1655.5 23.125 C 1643.7426 26.95974 1631.9274 30.50928 1614.5 35.46875 C 1610.3119 36.6606 1603.4673 39.75682 1599 42.46875 C 1594.6 45.13982 1585.825 49.31006 1579.5 51.75 C 1560.0122 59.26763 1533.4077 71.055 1525.0625 75.84375 C 1520.6919 78.35174 1513.4919 81.60005 1509.0625 83.0625 C 1500.1991 85.98889 1482.7614 94.31293 1477.9375 97.9375 C 1476.2464 99.20817 1467.4714 104.732 1458.4375 110.1875 C 1438.3665 122.30828 1433.331 125.52626 1424.7188 131.84375 C 1421.0264 134.55218 1415.525 138.21415 1412.5 139.96875 C 1392.8617 151.35967 1376.0434 162.38659 1366.5 170.15625 C 1363.4821 172.61328 1359.2071 175.5353 1357 176.65625 C 1354.793 177.77721 1350.3 180.58627 1347 182.90625 C 1343.7 185.22622 1337.85 188.86927 1334 190.96875 C 1327.3567 194.59144 1296.1046 215.56312 1288.4062 221.5625 C 1286.425 223.10658 1282.428 225.54509 1279.5312 227 C 1276.6347 228.4549 1271.4972 231.95558 1268.125 234.78125 C 1246.2713 253.09303 1231.105 263.80394 1218.9375 269.5 C 1212.5518 272.4894 1205.0313 276.99635 1200.5625 280.53125 C 1183.3819 294.12121 1176.8187 299.18658 1173.5 301.40625 C 1171.575 302.69375 1166.175 307.45768 1161.5 311.96875 C 1156.825 316.47982 1148.95 322.76951 1144 325.96875 C 1139.05 329.16798 1133.008 333.49627 1130.5938 335.59375 C 1121.6769 343.34017 1113.8304 342.39901 1105.5625 332.59375 C 1103.2064 329.79959 1096.9591 323.78452 1091.6875 319.21875 C 1086.4158 314.65299 1077.1411 306.40753 1071.0625 300.875 C 1064.9839 295.34247 1054.8349 286.79247 1048.5312 281.875 C 1042.2277 276.95753 1030.0777 266.3526 1021.5312 258.3125 C 1012.985 250.2724 1003.0146 241.2724 999.375 238.3125 C 984.0949 225.88599 974.5327 217.62638 967 210.40625 C 962.6 206.18881 956.75 201.47626 954 199.90625 C 951.25 198.33625 945.85 194.94184 942 192.375 C 938.15 189.80816 932.75 186.54377 930 185.125 C 925.0138 182.55252 919.94295 178.9694 900.34375 164.0625 C 889.96235 156.16656 873.43275 147.39865 858.71875 142.03125 C 855.02555 140.68403 849.35 138.41088 846.125 136.96875 C 842.9 135.52662 837.05 133.6906 833.125 132.875 C 824.402 131.0624 812.52695 127.19728 802.46875 122.90625 C 791.89295 118.39441 786.0323 117.29375 769.9375 116.84375 C 762.2061 116.62759 747.51735 115.99569 737.28125 115.4375 C 727.04515 114.8793 718.07615 114.63851 717.34375 114.90625 C 716.61125 115.17398 706.775 115.84516 695.5 116.375 C 667.3909 117.69591 649.64835 121.25052 637.59375 128 C 630.98995 131.69754 603.71875 143.1119 592.21875 147 C 586.83195 148.82127 580.08195 151.64879 577.21875 153.28125 C 574.35565 154.91371 568.55195 157.61453 564.34375 159.28125 C 554.9793 162.9902 527.21232 177.30584 504.0625 190 L 497.46875 251.125 C 500.65933 249.37097 504.29001 247.20563 506.9375 245.4375 C 526.0139 232.69736 528.9384 235.10554 525.5625 260.8125 C 524.3985 269.67584 523.20705 278.9625 522.90625 281.4375 C 522.00945 288.81691 520.2924 293.45099 517.6875 295.5 C 513.799 298.55865 510.30565 296.84834 495.96875 284.96875 C 495.25735 284.37928 494.63225 283.84441 493.96875 283.28125 L 489.40625 325.5625 C 496.43759 331.33152 504.23082 337.26104 508.40625 339.875 C 510.83255 341.39394 515.78255 345.44089 519.40625 348.84375 C 525.93865 354.97804 537.7654 363.48675 544.5 366.90625 C 546.425 367.88369 552.05 371.74059 557 375.46875 C 561.95 379.19691 569.87015 384.51213 574.59375 387.28125 C 579.31735 390.05037 585.39235 394.05756 588.09375 396.1875 C 590.79515 398.31745 595.7868 401.53545 599.1875 403.34375 C 602.5882 405.15205 609.5632 409.987 614.6875 414.09375 C 625.2001 422.51882 637.2 430.23092 649 436.125 C 653.4 438.32279 659.60005 441.77423 662.78125 443.8125 C 665.96245 445.85077 672.03745 449.02484 676.28125 450.84375 C 680.52505 452.66267 688.11675 456.21636 693.15625 458.75 C 698.19575 461.28364 707.48655 465.14201 713.78125 467.3125 C 720.07585 469.48298 730.77795 473.83037 737.59375 476.96875 C 763.30725 488.80858 767.72185 490.47255 779.78125 493.0625 C 786.48825 494.50294 796.01065 497.29688 800.96875 499.28125 L 810 502.90625 L 844.5 502.84375 C 893.416 502.78122 910.8011 501.50138 938.5 495.8125 C 959.2471 491.5514 967.8572 489.22885 977 485.46875 C 982.5 483.20679 990.6 480.23194 995 478.84375 C 1018.6801 471.37272 1045.9086 454.93822 1071.5 432.6875 C 1089.2597 417.24619 1090.9981 415.79405 1098.5 410.15625 C 1102.625 407.05623 1108.6328 402.46942 1111.8438 399.96875 C 1120.5447 393.19213 1123.7429 393.47951 1131.8438 401.6875 C 1137.2154 407.1304 1139.6788 408.67627 1151 413.78125 C 1158.15 417.00533 1166.925 421.31751 1170.5 423.375 C 1194.976 437.46147 1233.0048 453.93432 1268 465.59375 C 1285.6881 471.48693 1313.0936 476.35935 1328.9375 476.40625 C 1334.4084 476.42246 1343.8584 476.91307 1349.9375 477.5 C 1357.7902 478.25866 1363.7506 478.23153 1370.5 477.46875 C 1375.725 476.87824 1390.35 475.96266 1403 475.40625 C 1440.7674 473.74505 1454.0999 471.63054 1482 462.96875 C 1491.9 459.89522 1505.625 455.77806 1512.5 453.8125 C 1527.2646 449.59128 1546.3931 442.97553 1551.9062 440.1875 C 1554.0611 439.09782 1560.1361 436.4166 1565.4062 434.21875 C 1570.6764 432.02089 1578.825 428.60793 1583.5 426.65625 C 1588.175 424.70458 1593.6365 422.09612 1595.625 420.84375 C 1597.6135 419.59138 1609.0885 413.53853 1621.125 407.40625 C 1642.0592 396.74086 1655.3896 389.16219 1695.7812 365.03125 C 1705.795 359.04884 1718.8296 351.55935 1724.7188 348.375 C 1730.6079 345.19065 1736.9124 341.43283 1738.75 340.03125 C 1742.4823 337.18449 1754.3584 331.59328 1762.0312 329.0625 C 1764.7974 328.15015 1771.9974 324.43689 1778.0312 320.8125 C 1784.0652 317.18811 1794.7198 311.39363 1801.7188 307.9375 C 1813.2122 302.262 1828.5216 293.56348 1845 283.34375 C 1850.9959 279.62517 1874.7768 268.29516 1879.5 266.90625 C 1880.875 266.50191 1884.7 264.70793 1888 262.90625 C 1891.3 261.10458 1896.4946 258.93198 1899.5625 258.0625 C 1902.6303 257.19302 1906.7928 255.32465 1908.8125 253.9375 C 1910.8321 252.55034 1914.0639 250.34042 1915.9688 249.03125 C 1917.8733 247.72207 1923.611 245.006 1928.7188 242.96875 C 1938.6547 239.00568 1945.6965 235.27785 1954.5 229.375 C 1960.7392 225.19156 1968.7686 221.08835 1974.8438 218.84375 L 1973.9688 183.34375 C 1972.7339 183.78469 1971.4514 184.24141 1970.0625 184.75 C 1949.1123 192.42152 1948.7419 192.21177 1939.7188 166.21875 C 1929.5314 136.87213 1921.7559 105.04756 1918.0312 77.4375 C 1917.1039 70.5625 1915.7236 62.13179 1914.9375 58.71875 C 1912.3817 47.621687 1913.4844 42.609175 1921.5312 42.375 C 1926.3595 42.234495 1933.6786 43.811949 1944.2188 46.8125 C 1957.6873 50.646733 1965.887 53.446172 1970.9062 56.8125 L 1970.1562 24.71875 C 1964.3345 22.855564 1958.6283 21.249908 1953.2812 20 C 1947.3908 18.62304 1936.8157 15.20292 1929.7812 12.40625 C 1915.0681 6.55667 1903.2752 4.50909 1885 4.625 C 1878.6824 4.66507 1870.3567 4.00024 1865.4375 3.0625 C 1854.9027 1.0543 1841.2529 0.05878998 1826.7812 0 C 1825.2738 -0.0061239563 1823.7728 -0.014134598 1822.25 0 z M 1856.0312 38.4375 C 1869.9934 38.271713 1870.7067 40.390513 1872.4375 54.4375 C 1875.3535 78.10371 1879.6372 103.98309 1882.5 115.4375 C 1883.5309 119.5625 1886.2168 133.0625 1888.4688 145.4375 C 1893.0104 170.39675 1895.0934 179.57613 1900.0938 196.15625 C 1905.2277 213.17984 1904.4072 215.41347 1890.375 222.46875 C 1874.9337 230.23247 1874.5924 229.9064 1860.0938 194.21875 C 1848.5341 165.76564 1840.9766 141.13831 1837.5 120.53125 C 1836.3492 113.71023 1834.7667 105.38523 1834 102.03125 C 1832.7671 96.63842 1829.4801 71.02279 1827.8125 53.78125 C 1826.5573 40.80323 1828.6519 39.32322 1849.2188 38.625 C 1851.7958 38.537509 1854.0367 38.461184 1856.0312 38.4375 z M 1782.0625 45.59375 C 1785.0509 45.499864 1785.9715 47.705425 1785.7188 52.53125 C 1785.3393 59.77177 1789.5232 79.38065 1794.9688 95.875 C 1799.9736 111.03454 1803.789 127.08826 1813.4688 173.75 C 1817.3286 192.35705 1820.6761 207.87751 1820.9062 208.25 C 1821.1367 208.62248 1822.031 212.54203 1822.9062 216.9375 C 1823.7816 221.33296 1826.8043 230.85293 1829.625 238.09375 C 1837.1833 257.49597 1838.826 255.61127 1797.4688 275.28125 C 1767.4922 289.53839 1765.9859 289.78903 1764.125 280.78125 C 1761.9978 270.48455 1758.5639 247.50188 1758.0312 239.9375 C 1757.6828 234.9875 1756.9692 226.8875 1756.4375 221.9375 C 1755.9059 216.9875 1754.792 202.3625 1753.9688 189.4375 C 1753.1454 176.5125 1752.0542 162.7875 1751.5625 158.9375 C 1751.0708 155.0875 1750.5419 130.38457 1750.375 104.0625 C 1750.0263 49.05648 1748.9732 54.35614 1760.7188 52.375 C 1764.5898 51.72204 1770.6782 49.8277 1774.25 48.15625 C 1777.7313 46.527138 1780.2694 45.650082 1782.0625 45.59375 z M 1698.625 58.59375 C 1709.8022 58.426028 1709.4891 65.771957 1709.9375 93.4375 C 1710.48 126.90678 1713.4787 218.58663 1714.0625 219.53125 C 1714.6462 220.47561 1716.77 267.13099 1716.5312 273.75 C 1716.4553 275.85922 1717.3983 282.38422 1718.5938 288.25 C 1721.0651 300.37708 1721.4381 307.95 1719.7188 311.09375 C 1718.0835 314.08334 1691.1714 329.87263 1682.2812 333.0625 C 1678.2736 334.5005 1673.322 336.49877 1671.2812 337.53125 C 1663.7305 341.35173 1660.1098 339.31306 1658.5625 330.34375 C 1654.5951 307.346 1652.8919 292.32943 1651.5 268.4375 C 1650.9073 258.2625 1649.9932 244.0875 1649.4688 236.9375 C 1646.6652 198.72196 1646.1427 117.6081 1648.5312 89.9375 C 1650.6138 65.81476 1649.2675 67.03632 1679.5 61.46875 C 1688.1262 59.880152 1694.2513 58.65938 1698.625 58.59375 z M 1592.75 89 C 1602.8599 89.248592 1604.1771 101.53892 1607.0312 145.9375 C 1607.8447 158.5875 1608.9348 171.4125 1609.4375 174.4375 C 1609.9401 177.4625 1610.3945 184.6625 1610.4375 190.4375 C 1610.4808 196.2125 1610.9937 203.6375 1611.5938 206.9375 C 1612.1939 210.2375 1612.8391 221.2625 1613 231.4375 C 1613.1609 241.6125 1613.558 253.3125 1613.9062 257.4375 C 1614.2547 261.5625 1614.9711 276.1875 1615.5 289.9375 C 1616.5205 316.46759 1617.6764 331.0946 1620.125 348.9375 C 1622.5161 366.36177 1622.3974 367.40052 1617.875 372.40625 C 1613.2765 377.49629 1594.2418 388.79738 1576.0938 397.1875 C 1554.2026 407.30811 1550.5 406.97391 1550.5 394.90625 C 1550.5 390.99226 1550.0042 385.14091 1549.4062 381.90625 C 1548.5102 377.05832 1548.6163 374.78219 1550.0312 368.96875 C 1551.8009 361.69908 1551.7242 357.1584 1549.4688 336.4375 C 1547.4937 318.29309 1544.7289 250.29815 1545.1875 231.4375 C 1548.4323 98.00204 1547.3479 102.37482 1579.3438 92.03125 C 1585.0503 90.18643 1589.38 88.917136 1592.75 89 z M 1505.4062 124.15625 C 1511.1079 123.70198 1511.5184 132.45145 1510.875 161.4375 C 1510.5026 178.2125 1510.1138 226.5875 1510 268.9375 C 1509.6961 381.94808 1508.8381 415.63204 1506.125 419.625 C 1503.5884 423.35808 1487.8364 430.84753 1477 433.46875 C 1473.15 434.40003 1465.9991 436.33582 1461.125 437.78125 C 1446.442 442.13561 1442.8857 441.31959 1440.5938 432.9375 C 1438.5869 425.59907 1439.7526 391.31731 1442.6875 371.4375 C 1445.8985 349.68688 1443.5616 344.62074 1431.25 346.78125 C 1429.4625 347.09493 1425.075 346.97517 1421.5 346.53125 C 1405.0875 344.49326 1403.1009 348.48446 1402 385.4375 C 1401.6805 396.1625 1401.3092 408.3125 1401.1875 412.4375 C 1401.0658 416.5625 1400.8479 424.78125 1400.7188 430.71875 C 1400.4369 443.66554 1399.1399 445.81763 1390.9062 446.78125 C 1351.0697 451.44355 1349.5805 448.62714 1361 389.9375 C 1367.1964 358.09165 1365.7831 352.46391 1350.4375 348.03125 C 1329.4575 341.97102 1326.7721 343.50902 1323.8438 363.1875 C 1323.0736 368.36257 1321.6994 375.81168 1320.8125 379.75 C 1319.8553 384.00081 1319.0919 392.89005 1318.9062 401.59375 C 1318.1412 437.4755 1309.8309 445.35861 1284.8125 434.0625 C 1277.9659 430.97115 1275.6771 430.4375 1269.6875 430.4375 C 1256.4282 430.4375 1254.191 423.32965 1259.4375 397.9375 C 1261.1655 389.57375 1261.4551 384.91043 1261.25 369.4375 C 1261.0139 351.61926 1261.1249 350.45842 1264.1875 337.9375 C 1265.9364 330.7875 1268.3278 319.5375 1269.5 312.9375 C 1270.6722 306.3375 1272.5593 297.3375 1273.6875 292.9375 C 1274.8157 288.5375 1276.2628 282.40919 1276.9375 279.34375 C 1278.6253 271.67619 1281.1428 267.84936 1287.0312 263.9375 C 1289.7952 262.10132 1294.2413 258.79056 1296.9375 256.5625 C 1299.6338 254.33445 1304.5638 251.07735 1307.875 249.3125 C 1311.1861 247.54766 1317.407 242.81554 1321.6875 238.8125 C 1329.6088 231.40451 1346.1186 219.81029 1350.2188 218.78125 C 1357.0776 217.05978 1357.8962 220.48583 1356.4062 245.40625 C 1354.2506 281.46615 1357.0302 286.3712 1379 285.21875 C 1401.5325 284.03679 1404.2172 279.41934 1402.6875 244.53125 C 1401.6021 219.77834 1401.9814 205.04947 1404.0938 190.6875 C 1405.0229 184.36937 1406.6849 183.13683 1440.6875 163.1875 C 1444.3732 161.02506 1449.6561 157.60931 1452.4062 155.59375 C 1472.4799 140.88161 1478.1969 137.01471 1484.6562 133.9375 C 1488.687 132.01741 1494.5929 129.03897 1497.7812 127.28125 C 1501.0152 125.49845 1503.5058 124.30767 1505.4062 124.15625 z M 706.4375 162.75 C 722.60488 163.0571 723.37453 177.07809 715.40625 217.9375 C 714.33365 223.4375 712.8076 232.4375 712 237.9375 C 707.8982 265.87115 705.3833 281.5634 704.0625 287.4375 C 703.2587 291.0125 702.11155 298.4375 701.53125 303.9375 C 700.95095 309.4375 699.79865 320.4625 698.96875 328.4375 C 697.55915 341.98208 696.3123 349.80092 691.5 374.9375 C 690.4471 380.4375 689.0711 388.23398 688.4375 392.28125 C 687.7058 396.95538 686.5763 400.32992 685.375 401.53125 C 679.1429 407.76331 642.1448 391.65089 634.125 379.21875 C 631.807 375.62534 632.32225 367.05215 635.40625 358.15625 C 637.03335 353.46281 637.2861 350.86684 636.8125 344.15625 C 636.2089 335.60299 637.75135 323.88225 642.90625 297.9375 C 646.14975 281.61286 649.3886 263.88205 650.125 258.4375 C 650.4597 255.9625 652.0083 248.7625 653.5625 242.4375 C 655.1166 236.1125 656.8925 227.7875 657.5 223.9375 C 659.0754 213.95391 663.1017 198.07674 665.375 192.9375 C 666.4423 190.5249 667.87235 185.94687 668.53125 182.75 C 670.97995 170.86947 672.50215 169.58874 689.09375 165.4375 C 696.1758 163.66556 701.91063 162.66401 706.4375 162.75 z M 765.40625 164.4375 C 770.35485 164.4375 784.2162 169.26161 789.25 172.75 C 791.3416 174.19951 795.4842 175.84618 798.4375 176.40625 C 807.2544 178.07834 808.3861 180.92347 804.4375 191.3125 C 803.0755 194.89586 802.24195 200.09865 801.90625 206.8125 C 801.37505 217.43424 799.01555 236.81098 797.34375 244.4375 C 796.30405 249.18076 795.60525 254.84335 793.03125 278.4375 C 792.16125 286.4125 790.31815 299.6875 788.96875 307.9375 C 782.03455 350.33244 780.3905 362.31229 779.4375 377.4375 C 777.989 400.42609 771.71 431.17831 767.75 434.65625 C 763.5675 438.32963 757.501 437.28145 745.5 430.84375 C 741.382 428.63475 734.9376 425.52011 731.1875 423.9375 C 721.0718 419.66839 720.50625 418.60173 720.53125 404.03125 C 720.55905 387.82716 724.1347 354.45289 728 334.4375 C 728.7965 330.3125 730.13385 319.9625 730.96875 311.4375 C 731.80355 302.9125 733.15565 292.5625 733.96875 288.4375 C 736.82025 273.97198 742.6103 246.87826 744.125 240.96875 C 744.9663 237.6865 746.30515 231.00076 747.09375 226.125 C 747.88235 221.24924 749.60415 212.68574 750.90625 207.09375 C 752.20835 201.50176 754.29295 190.98422 755.53125 183.71875 C 758.29085 167.5272 759.86345 164.4375 765.40625 164.4375 z M 620.84375 187.625 C 626.86634 187.34474 627.59458 192.06086 625.0625 202.9375 C 624.2942 206.2375 623.15815 212.5375 622.53125 216.9375 C 619.77845 236.25835 618.0515 246.59173 612.4375 277.4375 C 607.6974 303.48153 605.4995 316.82453 604 328.4375 C 601.954 344.28237 600.78285 349.44455 598.78125 351.65625 C 594.79345 356.0627 560.3056 335.28297 554.75 325.125 C 550.3424 317.06593 554.364 288.96477 566.5 242.9375 C 567.5151 239.0875 569.09875 232.1125 570.03125 227.4375 C 573.43155 210.38948 581.2345 202.85809 606.75 192 C 613.10016 189.2977 617.68906 187.7718 620.84375 187.625 z M 847.90625 194.03125 C 848.24144 194.01932 848.59754 194.01902 848.96875 194.03125 C 859.27425 194.37085 860.69915 198.39317 861.59375 229.65625 C 862.39455 257.64088 862.4865 258.33459 866.125 269.5625 C 869.3037 279.37201 870.1826 280.09474 880 280.8125 C 884.4 281.13419 890.0487 281.66866 892.5625 282 C 902.0042 283.24451 905.0533 277.9028 906.3125 257.78125 C 907.7453 234.88449 913.31965 226.94148 925.96875 229.875 C 948.67435 235.14077 958.4337 252.3856 955.0625 281.3125 C 954.2093 288.63381 953.48575 297.84606 953.46875 301.78125 C 953.45165 305.71643 952.8232 314.169 952.0625 320.5625 C 950.9723 329.72556 950.88015 336.50153 951.65625 352.5625 C 952.84305 377.12434 952.7431 434.44512 951.5 439.96875 C 950.0431 446.44194 939.16435 452.42546 922.46875 455.9375 C 911.44675 458.25604 907.59065 457.47184 905.53125 452.5 C 904.04335 448.90789 905.78485 414.17162 908.46875 393.9375 C 912.03855 367.0249 911.2299 362.81421 901.1875 355.9375 L 895.375 351.96875 L 890.6875 353.8125 C 888.1048 354.8144 883.075 356.26718 879.5 357.0625 C 867.8564 359.6528 865.34805 365.33215 862.53125 395.4375 C 861.88795 402.3125 860.9462 410.4125 860.4375 413.4375 C 859.5284 418.84289 856.5 446.24521 856.5 449.0625 C 856.5 456.26806 840.91785 457.03773 819.71875 450.875 C 806.89845 447.14803 806.5532 437.35548 816.5625 358.9375 C 819.0706 339.28835 820.87635 324.92703 822.96875 307.9375 C 824.84975 292.66504 828.4361 270.90271 832.5625 249.84375 C 834.1861 241.55795 836.8612 226.70795 838.5 216.84375 C 841.70812 197.53334 842.87836 194.21027 847.90625 194.03125 z M 1012.0938 294.59375 C 1017.3102 294.85312 1023.5183 300.67629 1029.375 312.15625 C 1030.5017 314.3648 1032.873 317.44918 1034.6562 319.03125 C 1037.6624 321.6981 1048.6298 332.11981 1072.8438 355.25 C 1084.7388 366.61275 1085.3858 369.35639 1077.5 375.15625 C 1075.025 376.97658 1069.85 381.12126 1066 384.375 C 1062.15 387.62874 1055.4 392.83731 1051 395.96875 C 1046.6 399.10019 1041.5703 402.92736 1039.8438 404.4375 C 1036.6928 407.1933 1034.4891 408.30642 1015.9688 416.78125 C 1002.5439 422.92433 1000.3104 423.34161 997.09375 420.125 L 994.5625 417.59375 L 995.0625 397.25 C 995.7818 366.84413 997.46347 339.18886 1000.0625 314.9375 C 1001.539 301.16048 1006.1817 294.2998 1012.0938 294.59375 z M 1226.0312 307.90625 C 1230.7408 307.90375 1232.007 314.96964 1229.5 328.53125 C 1228.9425 331.54693 1227.5939 343.55431 1226.5312 355.21875 C 1225.4688 366.88319 1224.3217 376.89729 1223.9688 377.46875 C 1223.6155 378.04021 1222.2646 384.68181 1220.9688 392.21875 C 1218.905 404.22173 1218.2878 406.21671 1216 408.1875 C 1211.1326 412.38045 1200.9448 409.01591 1191.6562 400.15625 C 1188.5186 397.16339 1184.3778 393.89022 1182.4688 392.90625 C 1177.341 390.26328 1158.3291 376.95725 1155.8125 374.25 C 1150.277 368.29512 1152.5717 363.12992 1164.1875 355.3125 C 1175.3111 347.82642 1185.2664 339.02766 1190.6875 331.875 C 1195.7696 325.16964 1201.8988 320.21896 1210.5 315.90625 C 1213.525 314.38949 1217.8884 311.85726 1220.1875 310.28125 C 1222.514 308.68591 1224.4615 307.90708 1226.0312 307.90625 z "
       transform="translate(-1029.8447,230.19985)"
       id="path3132" />
  </g>
</svg>
