<?xml version="1.0" encoding="UTF-8" standalone="no"?>
<!-- Created with Inkscape (http://www.inkscape.org/) -->

<svg
   xmlns:dc="http://purl.org/dc/elements/1.1/"
   xmlns:cc="http://creativecommons.org/ns#"
   xmlns:rdf="http://www.w3.org/1999/02/22-rdf-syntax-ns#"
   xmlns:svg="http://www.w3.org/2000/svg"
   xmlns="http://www.w3.org/2000/svg"
   xmlns:sodipodi="http://sodipodi.sourceforge.net/DTD/sodipodi-0.dtd"
   xmlns:inkscape="http://www.inkscape.org/namespaces/inkscape"
   width="1833.0925"
   height="783.32861"
   id="svg3526"
   version="1.1"
   inkscape:version="0.48.4 r9939"
   sodipodi:docname="Nouveau document 19">
  <defs
     id="defs3528" />
  <sodipodi:namedview
     id="base"
     pagecolor="#ffffff"
     bordercolor="#666666"
     borderopacity="1.0"
     inkscape:pageopacity="0.0"
     inkscape:pageshadow="2"
     inkscape:zoom="0.35"
     inkscape:cx="891.54628"
     inkscape:cy="205.95003"
     inkscape:document-units="px"
     inkscape:current-layer="layer1"
     showgrid="false"
     fit-margin-top="0"
     fit-margin-left="0"
     fit-margin-right="0"
     fit-margin-bottom="0"
     inkscape:window-width="1256"
     inkscape:window-height="806"
     inkscape:window-x="180"
     inkscape:window-y="93"
     inkscape:window-maximized="0" />
  <metadata
     id="metadata3531">
    <rdf:RDF>
      <cc:Work
         rdf:about="">
        <dc:format>image/svg+xml</dc:format>
        <dc:type
           rdf:resource="http://purl.org/dc/dcmitype/StillImage" />
        <dc:title></dc:title>
      </cc:Work>
    </rdf:RDF>
  </metadata>
  <g
     inkscape:label="Calque 1"
     inkscape:groupmode="layer"
     id="layer1"
     transform="translate(516.54628,45.016425)">
    <path
       inkscape:connector-curvature="0"
       style="fill:#d40055;fill-opacity:1"
       d="m -389.85111,736.49913 c -7.871,-4.9455 -11.8232,-17.8756 -11.0012,-35.9923 0.7311,-16.1141 -3.3761,-27.071 -16.6819,-44.5025 -13.3469,-17.4855 -15.2203,-32.7171 -4.8416,-39.3662 10.3746,-6.6465 15.5131,-3.9483 24.9104,13.0805 25.231,45.721 23.3615,44.3749 43.0162,30.9713 21.4671,-14.6396 21.3421,-12.5689 2.9288,-48.5154 -16.5832,-32.3737 -16.6159,-32.6917 -4.6376,-45.0432 10.1201,-10.4355 14.6683,-7.3786 23.975,16.1144 16.5113,41.6794 24.2754,50.6378 37.0031,42.695 3.025,-1.8878 12.9966,-7.9505 22.1592,-13.4727 24.6008,-14.8267 24.528,-14.6093 13.4122,-40.0867 -3.7195,-8.525 -8.3198,-19.325 -10.2229,-24 -1.9031,-4.675 -5.46,-13.3193 -7.9043,-19.2096 -4.9866,-12.0164 -5.2763,-13.9584 -2.497,-16.7377 8.1169,-8.1168 23.9445,-1.5205 31.2892,13.04 2.055,4.074 6.931,14.1573 10.8355,22.4073 10.7093,22.6279 11.2177,23.5884 14.1514,26.7342 l 2.7232,2.9201 9.2768,-0.6985 c 5.1021,-0.3841 10.8517,-1.2745 12.7767,-1.9785 25.5504,-9.3446 27.5344,-11.7129 22.1799,-26.4773 -3.8064,-10.4957 -14.1233,-49.6482 -14.8942,-56.5231 -1.644,-14.6635 22.2388,-26.0117 32.4239,-15.4065 10.1578,10.5768 12.2262,15.3552 15.7234,36.3251 6.7557,40.5075 9.5988,43.4668 35.2529,36.6929 8.1477,-2.1514 18.2714,-4.6504 22.4969,-5.5533 13.8549,-2.9605 14.7964,-5.1103 9.9024,-22.6117 -1.6032,-5.7329 -4.0798,-16.0484 -5.5037,-22.9234 -4.1978,-20.2693 -6.5537,-29.0926 -9.657,-36.1676 -5.18,-11.8097 -1.3334,-16.8324 12.891,-16.8324 2.5102,0 7.1342,-0.5309 10.2756,-1.1797 11.4413,-2.3632 15.425,4.7324 19.8941,35.4343 6.4991,44.6474 11.508,52.2032 32.3696,48.8286 7.2297998,-1.1694 14.9451998,-2.392 17.1451998,-2.7166 17.3508002,-2.5607 19.1483002,-11.2612 7.7297,-37.415 -1.0922,-2.5016 -2.3196,-6.5516 -2.7276,-9 -0.408,-2.4484 -2.1934,-8.5016 -3.9676,-13.4516 -10.8294,-30.2132 -9.8508,-34.1408 10.2816002,-41.2653 23.0022,-8.14 27.9587,-2.3031 31.22,36.7653 1.2518,14.9949 7.61839,42.6382 10.82479,47 2.351,3.1981 6.711,3.6103 16.9099,1.5987 4.2511,-0.8384 11.3018,-1.9985 15.6684,-2.5778 12.3454,-1.638 13.3469,-3.4225 9.0337,-16.0957 -16.4049,-48.2022 -14.8582,-91.7337 2.9791,-83.8434 4.5211,1.9999 4.9771,2.0261 8.9395,0.5128 10.9655,-4.1878 18.6085,3.2157 18.6085,18.0253 0,4.3693 0.6788,10.4048 1.5085,13.4122 2.9143,10.5637 4.5904,20.6139 6.0253,36.1294 2.2706,24.5511 2.1147,24.3867 22.3708,23.5848 23.9788,-0.9492 23.7317,-0.4766 20.5252,-39.2562 -1.2502,-15.1208 -1.3545,-21.537 -0.5119,-31.4901 0.582,-6.875 1.2446,-15.298 1.4724,-18.7178 0.9137,-13.716 5.4176,-16.928 15.3525,-10.9488 4.2103,2.534 7.3486,3.6118 11.6801,4.0114 4.5917,0.4236 6.502,1.127 8.5,3.1297 l 2.5771,2.5834 -0.3226,28.721 c -0.531,47.2741 2.0232,57.2598 14.6284,57.1892 29.07971,-0.1628 35.87071,-2.8013 37.32321,-14.5012 0.5339,-4.3007 1.2858,-8.3025 1.6709,-8.8931 0.3851,-0.5906 0.9251,-12.7949 1.2001,-27.1206 0.5935,-30.9176 0.3492,-30.1578 10.6991,-33.2772 13.9416,-4.2019 18.4545,-4.0554 24.8965,0.8084 10.3941,7.8476 9.9497,3.9855 8.1475,70.8149 -0.1983,7.3554 1.2645,7.7463 27.5276,7.3561 33.0813,-0.4915 31.1305,2.1909 33.2117,-45.6667 0.6856,-15.7641 6.1672,-44.3391 9.1348,-47.6182 2.0679,-2.285 4.3437,-2.1893 14.3507,0.6035 3.0074,0.8393 7.7324,1.5419 10.5,1.5614 6.2759,0.044 8.4466,1.2435 12.9589,7.1597 6.4979,8.5196 6.8287,11.4979 3.0831,27.7621 -2.3242,10.0921 -5.9728,34.6854 -7.2158,48.6377 -1.05,11.7853 16.1576,18.3945 47.9169,18.4043 6.1128,0 9.8174,-9.3395 11.699,-29.4992 4.0607,-43.5069 4.5749,-46.8248 8.56293,-55.2537 5.7728,-12.201 10.7207,-14.9176 17.0496,-9.3607 1.8076,1.5871 5.5181,4.1002 8.2454,5.5846 9.5778,5.2129 11.6234,13.914 7.8831,33.5298 -10.6746,55.982 -9.0835,59.9333 25.557,63.4646 19.5124,1.9891 23.9157,0.2001 25.3152,-10.285 0.8783,-6.5806 3.2842,-21.314 4.9283,-30.1796 0.765,-4.125 2.1379,-11.775 3.051,-17 4.267,-24.4171 5.1842,-26.1527 15.0689,-28.5131 21.7018,-5.1821 27.4932,3.1165 20.9771,30.0585 -6.2362,25.7849 -9.6164,53.963 -7.1743,59.8077 1.8817,4.5036 8.1004,6.0088 38.6926,9.3651 9.3666,1.0277 11.5807,-4.9243 13.9221,-37.4267 1.9116,-26.5346 5.1738,-51.3519 7.474,-56.8568 3.0411,-7.2785 14.9803,-12.6829 22.052,-9.9821 9.4429,3.6062 11.6146,10.0669 9.4082,27.9889 -0.8043,6.5333 -1.416,22.3116 -1.495,38.5585 -0.073,15.125 -0.4785,30.2128 -0.9001,33.5285 -1.0346,8.1362 -0.3163,8.6369 13.7969,9.6163 35.8032,2.4848 39.122,1.6593 39.2556,-9.7641 0.044,-3.7844 0.54,-13.6307 1.1017,-21.8807 0.5617,-8.25 1.0723,-18.375 1.1347,-22.5 0.6915,-45.7289 2.1245,-49.5352 16.5791,-44.0395 18.8902,7.182 23.3961,20.971 18.1206,55.4524 -2.959,19.3407 -1.7965,39.2138 2.5225,43.1225 4.7441,4.2933 49.7667,4.2645 54.7435,-0.035 l 2.7174,-2.3476 -0.3194,-20.8264 c -0.3071,-20.0222 -1.8049,-35.2046 -4.3368,-43.9615 -1.8572,-6.4231 10.726,-30.4659 16.734,-31.9738 7.5283,-1.8895 19.1412,3.2022 23.5774,10.3375 l 2.3448,3.7714 -0.3638,39.0099 c -0.4992,53.5409 -4.148,48.6203 36.0815,48.659 40.5338,0.039 38.1673,2.2095 37.2561,-34.1689 -0.5718,-22.8317 0.178,-42.2845 2.0704,-53.7111 1.2354,-7.4592 8.7485,-11.7567 18.797,-10.7518 14.5423,1.4544 17.2081,7.5629 15.7375,36.0618 -2.9078,56.3527 0.3034,61.5494 36.81188,59.5726 41.5204,-2.2482 41.0612,-1.7189 37.6775,-43.4326 -2.8045,-34.5743 2.1992,-49.7389 16.4122,-49.7389 3.3737,0 8.1724,-0.5132 10.6636,-1.1406 8.728,-2.1977 11.9767,6.7937 12.8774,35.6406 1.5592,49.9371 2.2577,51.8209 18.2765,49.2963 3.8469,-0.6062 12.1419,-0.8014 19.4706,-0.458 20.3429,0.953 21.0523,0.1934 17.7293,-18.9833 -8.0698,-46.5697 -6.6222,-68.355 4.5421,-68.355 3.6579,0 6.9411,-0.7148 9.6644,-2.1042 11.4575,-5.8452 20.3739,3.9427 22.8047,25.0338 7.0472,61.1441 5.7238,58.8433 32.3257,56.2017 23.361,-2.3198 22.1545,0.2115 22.2067,-46.5915 0.023,-20.3719 0.3902,-38.0513 0.8167,-39.2875 0.9783,-2.8361 2.2734,-3.1309 18.142,-4.1297 20.7389,-1.3053 21.6578,-0.1244 20.8115,26.7464 -1.3505,42.8814 1.2833,58.1571 10.5475,61.1748 13.9515,4.5446 14.6263,30.154 1.1163,42.3596 -4.7972,4.3339 0.6052,3.9095 -51.9753,4.0828 -49.6096,0.1635 -88.3791,1.7213 -101.5,4.0783 -6.0992,1.0957 -19.3141,1.8872 -41,2.4558 -26.5499,0.696 -33.6128,1.194 -41.4696,2.9235 -17.1501,3.7753 -52.6049,6.9821 -78.03038,7.0576 -8.525,0.025 -20.9,0.5082 -27.5,1.0732 -6.6,0.5649 -34.0461,1.2128 -60.9912,1.4398 -26.9452,0.2269 -57.7702,0.8789 -68.5,1.4489 -44.4192,2.3594 -84.8445,0.2964 -117.5088,-5.997 -8.8,-1.6955 -20.725,-3.74 -26.5,-4.5434 -5.775,-0.8033 -14.1,-2.1273 -18.5,-2.9422 -4.4,-0.8149 -15.3335,-1.9178 -24.2967,-2.451 -8.9632,-0.5331 -16.777,-1.2662 -17.364,-1.629 -0.587,-0.3628 -12.8285,-0.8032 -27.2033,-0.9786 -38.3902,-0.4684 -64.1335,-1.9098 -70.136,-3.9271 -2.8828,-0.9688 -10.7164,-2.0336 -18.5,-2.5146 -15.1585,-0.9369 -40.51753,-3.4725 -49.29763,-4.9292 -3.1887,-0.529 -13.3137,-1.4778 -22.5,-2.1084 -9.1863,-0.6306 -21.1526,-2.0007 -26.5916,-3.0446 -6.265,-1.2025 -14.3278,-1.9057 -22,-1.9187 -6.661,-0.011 -19.7608,-0.6803 -29.1108,-1.4868 -27.6325,-2.3834 -76.5767,-2.0284 -95.1153,0.6898 -12.0424,1.7656 -19.9451,2.2112 -41.38471,2.3332 -14.575,0.083 -33.025,0.6692 -41,1.3027 -7.975,0.6336 -19.9408,1.1586 -26.5907,1.1668 -8.0276,0.01 -15.2527,0.668 -21.5,1.9587 -5.7118,1.18 -15.6967,2.172 -25.4093,2.5244 -16.5958,0.6021 -27.6288,1.6702 -43,4.1628 -4.95,0.8027 -13.4492,1.8843 -18.8871,2.4036 -7.10699,0.6787 -11.46539,1.6834 -15.49999,3.573 -10.0453,4.7047 -27.7428,9.8104 -48.1129,13.8804 -21.591,4.314 -31.1578,6.5726 -42.5,10.0336 -6.05,1.8461 -15.6906,4.5366 -21.4235,5.9788 -13.7639,3.4627 -19.0296,5.3237 -41.5289,14.6778 -10.4239,4.3337 -22.0714,8.5297 -25.8834,9.3246 -3.8121,0.7948 -12.1585,3.8781 -18.5476,6.8517 -6.3892,2.9736 -14.7666,6.4187 -18.6166,7.6558 -9.5771,3.0774 -40.2259,17.1595 -50,22.9734 -4.4,2.6172 -20.375,11.8575 -35.5,20.534 -15.125,8.6765 -30.65,17.8787 -34.5,20.4493 -3.85,2.5707 -10.825,6.9717 -15.5,9.7801 -4.675,2.8084 -14.575,9.3891 -22,14.6239 -7.425,5.2347 -16.7522,11.8129 -20.727,14.6181 -14.289,10.0843 -26.1794,13.3791 -32.9442,9.1286 z"
       id="path3366" />
    <path
       style="fill:#d40055;fill-opacity:1"
       d="m -451.3942,400.42233 c -7.4775,-3.2636 -10.6098,-8.7694 -15.4245,-27.1124 -8.9103,-33.9465 -11.1363,-37.4003 -22.266,-34.5478 -7.3214,1.8764 -9.1878,1.0074 -11.8328,-5.5095 -1.477,-3.6392 -3.6035,-6.6558 -6.1141,-8.6733 -11.8428,-9.5172 -12.7021,-20.1877 -2.1743,-27.0011 3.7464,-2.4246 11.3117,-8.2287 16.8117,-12.8981 5.5,-4.6693 14.5,-11.9454 20,-16.1691 24.9975,-19.1968 31.7785,-24.6926 39.1319,-31.7155 10.4088,-9.941 13.1377,-11.9082 24.3681,-17.5666 5.225,-2.6326 11.1713,-6.2631 13.2141,-8.0677 2.0427,-1.8047 6.0927,-4.4723 9,-5.9281 2.9072,-1.4558 6.6359,-3.6466 8.2859,-4.8685 1.65,-1.2219 5.925,-3.8507 9.5,-5.8418 3.575,-1.9912 9.2,-5.9266 12.5,-8.7455 3.3,-2.8188 8.25,-6.2748 11,-7.68 2.75,-1.4052 9.5,-5.3451 15,-8.7553 15.472,-9.5932 23.5701,-13.7023 42.5,-21.565 21.9833,-9.1309 33.8792,-14.6414 42.6341,-19.7493 3.7762,-2.2031 9.5659,-5.1373 12.8659,-6.5204 3.3,-1.3831 12.75,-5.5336 21,-9.2234 8.25,-3.6898 19.1125,-8.4185 24.139,-10.5083 13.0009,-5.405096 14.8496,-6.479596 21.2104,-12.327196 5.3535,-4.9217 6.8083,-5.6148 25.1663,-11.9904 14.6386,-5.0839 21.1677,-7.9008 26.2533,-11.3268 6.7813,-4.5684 16.7938,-9.253 19.8715,-9.2976 0.9023,-0.013 6.0773,-1.1848 11.5,-2.603798 5.4227,-1.4191 13.4595,-3.4031 17.8595,-4.4089 4.4,-1.0058 21.05,-5.2952 37,-9.5321 15.95,-4.2368 35.0749998,-8.9997 42.5,-10.5842 7.425,-1.5845 16.425,-3.7557 20,-4.8251 3.575,-1.0693 11.9,-3.3016 18.5,-4.9607 6.6,-1.6591 13.9533,-3.7068 16.3406,-4.5504 2.3874,-0.8435 8.5276,-2.2075 13.645,-3.031 5.1175,-0.8234 10.5892,-1.991 12.1594,-2.5946997 9.63,-3.7018 33.354,-7.9119 38.4389,-6.8214 7.8707,1.688 17.2499,0.5128 50.9161,-6.3798 9.2512,-1.894 17.9189,-3.0924 21.5,-2.9725 22.5218,0.7538 28.1217,0.5026 35.9383,-1.6118 4.3661,-1.181 9.9146,-2.1473003 12.33,-2.1473003 4.8907,0 22.2469,-2.1383 41.2317,-5.0799 6.875,-1.0652 20.825,-2.3784 31,-2.9183 21.7261,-1.1527 22.4367,-1.2538 35.6624,-5.0741 11.0313,-3.1863 31.7338,-6.2213 53.8376,-7.8923 7.7,-0.5821 16.25,-1.472 19,-1.9775 2.75,-0.5055 20.075,-1.1801 38.5,-1.499 39.69062,-0.687199 65.78802,-2.219799 72.00002,-4.228499 6.6953,-2.165 24.6633,-3.277 61.5,-3.8062 18.15,-0.2607 39.8138,-1.0093 48.1417,-1.6635 11.5692,-0.9089 16.8053,-0.9148 22.1926,-0.025 3.878,0.6404 15.0643,1.167 24.8583,1.1702 9.7941,0 20.5074,0.5002 23.8074,1.1044 3.3,0.6043 16.35,1.2403 29,1.4134 15.9194,0.2179 30.0806,1.0913 46,2.8372 21.5852,2.3674 41.076,3.801999 70.5,5.189199 6.875,0.3241 14.525,1.0018 17,1.506 6.0272,1.2279 18.6218,2.5068 48,4.8744 13.475,1.086 27.875,2.4582 32,3.0494 9.0819,1.3015 24.541,2.7059 43.99998,3.9972 27.6674,1.836 38.6772,2.9835 47.0668,4.9055 4.6383,1.0626 12.9794,2.2148 18.5359,2.5604 8.9456,0.5564 39.1948,5.6959003 41.3448,7.0247003 0.4509,0.2786 4.1347,0.9655 8.1862,1.5264 6.6026,0.914 17.5463,3.40360002 43.8663,9.9791 4.675,1.168 15.7,3.9249997 24.5,6.1266997 38.4148,9.6113 50.5664,15.2792 55.1947,25.7445 1.3534,3.0603 3.8483,7.3161 5.5443,9.4575 17.2436,21.771698 7.2804,46.074298 -17.5565,42.824898 -17.1741,-2.2469 -17.3833,-1.8888 -21.5768,36.938796 -1.2157,11.2565 -10.1747,25.9098 -16.8684,27.5898 -20.1669,5.0616 -35.1158,-21.4979 -26.9286,-47.8436 4.9569,-15.950596 5.7501,-25.473496 2.4413,-29.306896 -2.1577,-2.4998 -34.1836,-14.3725 -39.0301,-14.4693 -0.9791,-0.019 -4.5307,-1.1932 -7.8925,-2.6081 -11.598,-4.8816 -13.5392,-1.7023 -20.3928,33.4007 -0.787,4.0304 -2.764,10.365496 -4.3934,14.077996 -1.6294,3.7125 -3.2685,8.7399 -3.6425,11.1719 -2.0357,13.2393 -11.1,20.6498 -18.8365,15.3997 -2.0443,-1.3873 -5.8877,-3.6224 -8.5409,-4.9669 -9.7262,-4.9287 -10.8541,-8.6406 -9.1178,-30.0085 1.1918,-14.666496 2.1475,-20.880096 6.2747,-40.794496 3.6268,-17.499298 2.2026,-18.491698 -34.2306,-23.852298 -13.1945,-1.9413 -15.867,1.2351 -21.0705,25.043498 -1.6349,7.4805 -3.8218,16.751 -4.8598,20.601 -1.038,3.85 -2.6086,10.9929 -3.4903,15.8731 -2.5744,14.249596 -3.0502,14.961396 -13.10798,19.608096 -10.3047,4.7608 -8.6186,4.6322 -19.0451,1.452 -15.2198,-4.6423 -18.2058,-23.518096 -9.402,-59.433196 8.8108,-35.943698 7.5897,-37.976098 -24.9719,-41.564798 -36.9797,-4.0755 -36.0291,-4.5694 -40.5476,21.0648 -1.2603,7.15 -2.7956,15.025 -3.4118,17.499998 -0.6162,2.475 -1.7333,8.325 -2.4825,13 -7.7223,48.190796 -10.6467,54.804896 -22.2689,50.366296 -3.4262,-1.3084 -5.2767,-1.4361 -9.2968,-0.6412 -15.4708,3.059 -21.6949,-8.777 -16.5096,-31.395096 5.6099,-24.4697 7.5515,-33.608198 12.0744,-56.829998 4.2234,-21.6836997 -2.2555,-25.7057997 -43.2289,-26.8365997 -7.8774,-0.2174 -9.8408,3.8627 -13.3176,27.6748997 -1.1113,7.611 -3.158,18.861 -4.5482,24.999998 -6.0215,26.5889 -7.5485,33.5894 -8.8703,40.6657 -4.0037,21.433796 -5.5932,23.127596 -20.9827,22.359996 -25.9279,-1.2932 -27.8073,-6.1651 -17.2017,-44.591796 14.0232,-50.808998 14.7287,-72.6040977 2.2596,-69.8096977 -3.5217,0.7892 -6.275,0.6662 -11.876,-0.5308 -10.8588,-2.3205 -43.1883,-2.3244 -46.3594,-0.01 -1.9383,1.4173 -3.9055,14.9551997 -4.8912,33.6603997 -1.7359,32.940498 -8.3447,63.346994 -14.305,65.815794 -20.5404,8.5081 -35.2358,0.029 -35.2358,-20.330896 0,-13.4026 -0.2634,-15.9125 -2.107,-20.0804 -4.8164,-10.888298 -5.9757,-26.512798 -2.893,-38.990998 3.4168,-13.8304 2.2825,-21.6483997 -3.4908,-24.06059968 -4.9109,-2.05190002 -51.6251,-3.21510002 -53.1774,-1.32410002 -4.2045,5.1219 -8.1344,19.6997997 -9.8086,36.3846997 -0.9382,9.35 -2.3391,20.599998 -3.1131,24.999998 -0.7741,4.4 -1.408,10.2842 -1.4087,13.0759 -0.01,27.109496 -5.3326,35.161496 -22.3641,33.815496 -4.4396,-0.3509 -10.3169,0 -15.5494,0.9359 -13.5328,2.413 -16.4702,-0.4499 -12.1201,-11.812496 3.2993,-8.6178 5.9423,-18.8644 7.0973,-27.5148 0.5507,-4.125 1.6452,-10.4427 2.4322,-14.039298 3.194,-14.598 2.8232,-46.5502997 -0.6168,-53.1421997 -2.827,-5.4171 -23.1426,-5.8717 -39.25352,-0.87849998 -6.8521,2.12369998 -11.9187,3.05999998 -16.5589,3.05999998 -9.4954,0 -10.5519,1.0104 -10.633,10.1693997 -0.037,4.1476 -0.7788,9.2846 -1.709,11.8306 -1.2237,3.3495 -1.9213,11.0194 -2.7284,29.999998 -1.9296,45.377096 -7.4301,55.584496 -25.0445,46.475796 -1.621,-0.8383 -6.2112,-1.7271 -10.2003,-1.9752 -13.5309,-0.841296 -15.3532,-5.715096 -11.3776,-30.430396 3.274,-20.353298 4.6247,-31.783398 4.6247,-39.134998 0,-3.0896 0.6701,-7.8264 1.4892,-10.5263 3.6605,-12.0664997 -1.9189,-15.2939997 -16.9892,-9.8277 -6.8511,2.485 -10.7847,3.0192 -39.5,5.3644 -33.9006,2.7686 -35.7949,4.4504 -34.4139,30.5544 2.2791,43.080398 1.0826,56.145294 -5.9312,64.764694 -6.2849,7.7235 -8.4109,8.469 -15.1119,5.299 -4.234,-2.003 -6.974,-2.5637 -12.5288,-2.5637 -12.9979,0 -13.3178,-1.0299 -11.8055,-37.999996 1.4741,-36.035298 0.3929,-41.610798 -8.446,-43.552098 -1.7507,-0.3845 -4.8818,-1.5845 -6.9579,-2.6667 -7.1227,-3.7125 -10.3284,-3.5293 -41.5899,2.3767 -2.9069,0.5492 -6.5069,2.0506 -8,3.3366 l -2.7149,2.3381 0.3029,13.3337 c 0.1667,7.333498 0.9631,17.608698 1.7699,22.833698 0.8068,5.225 1.5705,15.4313 1.697,22.6806 l 0.2302,13.180596 -3.5,3.6545 c -10.6668,11.1377 -29.8775,12.7181 -39.388,3.2403 l -2.8879,-2.8781 0.7253,-31.700096 c 1.0134,-44.287898 2.0432,-43.356598 -38.9494,-35.224298 -18.2188,3.6143 -20.1715,4.9941 -19.0879,13.487898 0.3549,2.7822 1.3081,10.9086 2.1183,18.0586 0.8101,7.15 2.1198,16.375 2.9106,20.5 0.7907,4.124996 1.9482,10.874996 2.5722,14.999996 0.624,4.125 1.7787,11.1 2.566,15.5 2.839,15.8673 0.3157,18.081 -20.2954,17.8049 -13.6737,-0.1832 -14.8627,-0.045 -19.3921,2.25 -16.9987,8.6139 -18.6484,4.3308 -19.3273,-50.179796 -0.4806,-38.5883 2.2926,-36.4363 -32.0644,-24.8818 -5.5,1.8497 -15.4,4.5368 -22.0000002,5.9714 -22.8317998,4.9627 -23.9322998,6.4737 -19.1143998,26.245196 1.3122,5.3846 2.8561,12.7151 3.431,16.2901 0.575,3.575 2.1972998,11.45 3.6052998,17.5 5.1629,22.1849 2.6401,30.3259 -9.9218998,32.0174 -2.75,0.3703 -8.5108,1.7554 -12.8017,3.078 -13.8692,4.2748 -15.7943,3.3057 -18.1776,-9.1507 -0.9177,-4.7964 -3.1045,-11.1122 -5.5207,-15.9447 -3.9617,-7.9232 -6.0496,-16.1112 -7.5226,-29.5 -2.5794,-23.445996 -5.6021,-24.968196 -31.7583,-15.9931 -54.7436,18.7846 -54.0304,18.1479 -44.3505,39.5971 2.9527,6.5428 5.9329,14.371 6.6225,17.396 0.6896,3.025 2.707,9.325 4.4832,14 5.412,14.2447 7.8757,25.0428 7.1107,31.1655 -0.9643,7.718 -1.4181,8.1284 -9.8841,8.937 -8.3966,0.8021 -11.1837,1.9973 -18.2247,7.8157 -9.5407,7.884 -15.8268,3.5873 -17.1313,-11.7097 -0.4172,-4.8919 -1.7293,-9.281 -4.8456,-16.2085 -2.3504,-5.225 -6.4242,-15.7321 -9.0529,-23.3492 -7.1408,-20.6915 -9.9761,-23.4815 -19.1228,-18.8164 -2.103,1.0726 -9.2236,3.9834 -15.8236,6.4685 -13.212,4.9746 -30.1468,13.5443 -33.0037,16.7011 -3.6001,3.9781 -1.0533,11.6842 13.5626,41.0366 4.1273,8.2888 6.6258,15.0535 8.8673,24.0084 l 3.1207,12.468 -2.6085,7.4661 c -4.1533,11.8922 -6.3161,14.0213 -14.2381,14.0213 -2.533,0 -6.2095,1.2262 -10.4943,3.5 -11.7254,6.2224 -17.944,4.2076 -22.1704,-7.1829 -0.9831,-2.6494 -3.9352,-8.8671 -6.5603,-13.8171 -6.1112,-11.5236 -10.3187,-24.0728 -12.8275,-38.2583 -4.2319,-23.9288 -12.2393,-24.8651 -30.0775,-3.5169 -3.9825,4.7661 -8.2516,8.0335 -20.4562,15.6561 -21.5051,13.4315 -21.472,13.1257 -4.2643,39.4226 23.3234,35.6431 24.6308,42.5201 10.0581,52.9078 -23.1961,16.5346 -31.7231,14.5957 -41.8691,-9.5203 -5.0926,-12.1046 -11.5239,-27.1596 -14.3035,-33.4828 -6.7396,-15.3317 -12.1153,-13.9114 -39.1847,10.3528 -16.0599,14.3957 -17.3319,18.6731 -9.2526,31.1159 2.2581,3.4777 6.2648,10.0981 8.9038,14.7119 2.639,4.6138 7.1913,11.0777 10.1163,14.3642 6.5412,7.3495 6.9825,8.4846 7.7956,20.052 l 0.652,9.2754 -3.1624,3.1624 c -2.7769,2.7769 -30.4218,17.3211 -32.7273,17.2181 -0.4818,-0.022 -2.226,-0.6284 -3.876,-1.3485 z"
       id="path3364"
       inkscape:connector-curvature="0" />
  </g>
</svg>
