<?xml version="1.0" encoding="UTF-8" standalone="no"?>
<!-- Created with Inkscape (http://www.inkscape.org/) -->

<svg
   xmlns:dc="http://purl.org/dc/elements/1.1/"
   xmlns:cc="http://creativecommons.org/ns#"
   xmlns:rdf="http://www.w3.org/1999/02/22-rdf-syntax-ns#"
   xmlns:svg="http://www.w3.org/2000/svg"
   xmlns="http://www.w3.org/2000/svg"
   xmlns:sodipodi="http://sodipodi.sourceforge.net/DTD/sodipodi-0.dtd"
   xmlns:inkscape="http://www.inkscape.org/namespaces/inkscape"
   width="1833.0925"
   height="783.32861"
   id="svg3526"
   version="1.1"
   inkscape:version="0.48.4 r9939"
   sodipodi:docname="5.mirna-conjugate-complex.svg">
  <defs
     id="defs3528" />
  <sodipodi:namedview
     id="base"
     pagecolor="#ffffff"
     bordercolor="#666666"
     borderopacity="1.0"
     inkscape:pageopacity="0.0"
     inkscape:pageshadow="2"
     inkscape:zoom="0.35"
     inkscape:cx="891.54628"
     inkscape:cy="205.95003"
     inkscape:document-units="px"
     inkscape:current-layer="layer1"
     showgrid="false"
     fit-margin-top="0"
     fit-margin-left="0"
     fit-margin-right="0"
     fit-margin-bottom="0"
     inkscape:window-width="1256"
     inkscape:window-height="806"
     inkscape:window-x="180"
     inkscape:window-y="93"
     inkscape:window-maximized="0" />
  <metadata
     id="metadata3531">
    <rdf:RDF>
      <cc:Work
         rdf:about="">
        <dc:format>image/svg+xml</dc:format>
        <dc:type
           rdf:resource="http://purl.org/dc/dcmitype/StillImage" />
        <dc:title></dc:title>
      </cc:Work>
    </rdf:RDF>
  </metadata>
  <g
     inkscape:label="Calque 1"
     inkscape:groupmode="layer"
     id="layer1"
     transform="translate(516.54628,45.016425)">
    <path
       style="fill:#d40055;fill-opacity:1"
       d="m -451.3942,400.42233 c -7.4775,-3.2636 -10.6098,-8.7694 -15.4245,-27.1124 -8.9103,-33.9465 -11.1363,-37.4003 -22.266,-34.5478 -7.3214,1.8764 -9.1878,1.0074 -11.8328,-5.5095 -1.477,-3.6392 -3.6035,-6.6558 -6.1141,-8.6733 -11.8428,-9.5172 -12.7021,-20.1877 -2.1743,-27.0011 3.7464,-2.4246 11.3117,-8.2287 16.8117,-12.8981 5.5,-4.6693 14.5,-11.9454 20,-16.1691 24.9975,-19.1968 31.7785,-24.6926 39.1319,-31.7155 10.4088,-9.941 13.1377,-11.9082 24.3681,-17.5666 5.225,-2.6326 11.1713,-6.2631 13.2141,-8.0677 2.0427,-1.8047 6.0927,-4.4723 9,-5.9281 2.9072,-1.4558 6.6359,-3.6466 8.2859,-4.8685 1.65,-1.2219 5.925,-3.8507 9.5,-5.8418 3.575,-1.9912 9.2,-5.9266 12.5,-8.7455 3.3,-2.8188 8.25,-6.2748 11,-7.68 2.75,-1.4052 9.5,-5.3451 15,-8.7553 15.472,-9.5932 23.5701,-13.7023 42.5,-21.565 21.9833,-9.1309 33.8792,-14.6414 42.6341,-19.7493 3.7762,-2.2031 9.5659,-5.1373 12.8659,-6.5204 3.3,-1.3831 12.75,-5.5336 21,-9.2234 8.25,-3.6898 19.1125,-8.4185 24.139,-10.5083 13.0009,-5.405096 14.8496,-6.479596 21.2104,-12.327196 5.3535,-4.9217 6.8083,-5.6148 25.1663,-11.9904 14.6386,-5.0839 21.1677,-7.9008 26.2533,-11.3268 6.7813,-4.5684 16.7938,-9.253 19.8715,-9.2976 0.9023,-0.013 6.0773,-1.1848 11.5,-2.603798 5.4227,-1.4191 13.4595,-3.4031 17.8595,-4.4089 4.4,-1.0058 21.05,-5.2952 37,-9.5321 15.95,-4.2368 35.0749998,-8.9997 42.5,-10.5842 7.425,-1.5845 16.425,-3.7557 20,-4.8251 3.575,-1.0693 11.9,-3.3016 18.5,-4.9607 6.6,-1.6591 13.9533,-3.7068 16.3406,-4.5504 2.3874,-0.8435 8.5276,-2.2075 13.645,-3.031 5.1175,-0.8234 10.5892,-1.991 12.1594,-2.5946997 9.63,-3.7018 33.354,-7.9119 38.4389,-6.8214 7.8707,1.688 17.2499,0.5128 50.9161,-6.3798 9.2512,-1.894 17.9189,-3.0924 21.5,-2.9725 22.5218,0.7538 28.1217,0.5026 35.9383,-1.6118 4.3661,-1.181 9.9146,-2.1473003 12.33,-2.1473003 4.8907,0 22.2469,-2.1383 41.2317,-5.0799 6.875,-1.0652 20.825,-2.3784 31,-2.9183 21.7261,-1.1527 22.4367,-1.2538 35.6624,-5.0741 11.0313,-3.1863 31.7338,-6.2213 53.8376,-7.8923 7.7,-0.5821 16.25,-1.472 19,-1.9775 2.75,-0.5055 20.075,-1.1801 38.5,-1.499 39.69062,-0.687199 65.78802,-2.219799 72.00002,-4.228499 6.6953,-2.165 24.6633,-3.277 61.5,-3.8062 18.15,-0.2607 39.8138,-1.0093 48.1417,-1.6635 11.5692,-0.9089 16.8053,-0.9148 22.1926,-0.025 3.878,0.6404 15.0643,1.167 24.8583,1.1702 9.7941,0 20.5074,0.5002 23.8074,1.1044 3.3,0.6043 16.35,1.2403 29,1.4134 15.9194,0.2179 30.0806,1.0913 46,2.8372 21.5852,2.3674 41.076,3.801999 70.5,5.189199 6.875,0.3241 14.525,1.0018 17,1.506 6.0272,1.2279 18.6218,2.5068 48,4.8744 13.475,1.086 27.875,2.4582 32,3.0494 9.0819,1.3015 24.541,2.7059 43.99998,3.9972 27.6674,1.836 38.6772,2.9835 47.0668,4.9055 4.6383,1.0626 12.9794,2.2148 18.5359,2.5604 8.9456,0.5564 39.1948,5.6959003 41.3448,7.0247003 0.4509,0.2786 4.1347,0.9655 8.1862,1.5264 6.6026,0.914 17.5463,3.40360002 43.8663,9.9791 4.675,1.168 15.7,3.9249997 24.5,6.1266997 38.4148,9.6113 50.5664,15.2792 55.1947,25.7445 1.3534,3.0603 3.8483,7.3161 5.5443,9.4575 17.2436,21.771698 7.2804,46.074298 -17.5565,42.824898 -17.1741,-2.2469 -17.3833,-1.8888 -21.5768,36.938796 -1.2157,11.2565 -10.1747,25.9098 -16.8684,27.5898 -20.1669,5.0616 -35.1158,-21.4979 -26.9286,-47.8436 4.9569,-15.950596 5.7501,-25.473496 2.4413,-29.306896 -2.1577,-2.4998 -34.1836,-14.3725 -39.0301,-14.4693 -0.9791,-0.019 -4.5307,-1.1932 -7.8925,-2.6081 -11.598,-4.8816 -13.5392,-1.7023 -20.3928,33.4007 -0.787,4.0304 -2.764,10.365496 -4.3934,14.077996 -1.6294,3.7125 -3.2685,8.7399 -3.6425,11.1719 -2.0357,13.2393 -11.1,20.6498 -18.8365,15.3997 -2.0443,-1.3873 -5.8877,-3.6224 -8.5409,-4.9669 -9.7262,-4.9287 -10.8541,-8.6406 -9.1178,-30.0085 1.1918,-14.666496 2.1475,-20.880096 6.2747,-40.794496 3.6268,-17.499298 2.2026,-18.491698 -34.2306,-23.852298 -13.1945,-1.9413 -15.867,1.2351 -21.0705,25.043498 -1.6349,7.4805 -3.8218,16.751 -4.8598,20.601 -1.038,3.85 -2.6086,10.9929 -3.4903,15.8731 -2.5744,14.249596 -3.0502,14.961396 -13.10798,19.608096 -10.3047,4.7608 -8.6186,4.6322 -19.0451,1.452 -15.2198,-4.6423 -18.2058,-23.518096 -9.402,-59.433196 8.8108,-35.943698 7.5897,-37.976098 -24.9719,-41.564798 -36.9797,-4.0755 -36.0291,-4.5694 -40.5476,21.0648 -1.2603,7.15 -2.7956,15.025 -3.4118,17.499998 -0.6162,2.475 -1.7333,8.325 -2.4825,13 -7.7223,48.190796 -10.6467,54.804896 -22.2689,50.366296 -3.4262,-1.3084 -5.2767,-1.4361 -9.2968,-0.6412 -15.4708,3.059 -21.6949,-8.777 -16.5096,-31.395096 5.6099,-24.4697 7.5515,-33.608198 12.0744,-56.829998 4.2234,-21.6836997 -2.2555,-25.7057997 -43.2289,-26.8365997 -7.8774,-0.2174 -9.8408,3.8627 -13.3176,27.6748997 -1.1113,7.611 -3.158,18.861 -4.5482,24.999998 -6.0215,26.5889 -7.5485,33.5894 -8.8703,40.6657 -4.0037,21.433796 -5.5932,23.127596 -20.9827,22.359996 -25.9279,-1.2932 -27.8073,-6.1651 -17.2017,-44.591796 14.0232,-50.808998 14.7287,-72.6040977 2.2596,-69.8096977 -3.5217,0.7892 -6.275,0.6662 -11.876,-0.5308 -10.8588,-2.3205 -43.1883,-2.3244 -46.3594,-0.01 -1.9383,1.4173 -3.9055,14.9551997 -4.8912,33.6603997 -1.7359,32.940498 -8.3447,63.346994 -14.305,65.815794 -20.5404,8.5081 -35.2358,0.029 -35.2358,-20.330896 0,-13.4026 -0.2634,-15.9125 -2.107,-20.0804 -4.8164,-10.888298 -5.9757,-26.512798 -2.893,-38.990998 3.4168,-13.8304 2.2825,-21.6483997 -3.4908,-24.06059968 -4.9109,-2.05190002 -51.6251,-3.21510002 -53.1774,-1.32410002 -4.2045,5.1219 -8.1344,19.6997997 -9.8086,36.3846997 -0.9382,9.35 -2.3391,20.599998 -3.1131,24.999998 -0.7741,4.4 -1.408,10.2842 -1.4087,13.0759 -0.01,27.109496 -5.3326,35.161496 -22.3641,33.815496 -4.4396,-0.3509 -10.3169,0 -15.5494,0.9359 -13.5328,2.413 -16.4702,-0.4499 -12.1201,-11.812496 3.2993,-8.6178 5.9423,-18.8644 7.0973,-27.5148 0.5507,-4.125 1.6452,-10.4427 2.4322,-14.039298 3.194,-14.598 2.8232,-46.5502997 -0.6168,-53.1421997 -2.827,-5.4171 -23.1426,-5.8717 -39.25352,-0.87849998 -6.8521,2.12369998 -11.9187,3.05999998 -16.5589,3.05999998 -9.4954,0 -10.5519,1.0104 -10.633,10.1693997 -0.037,4.1476 -0.7788,9.2846 -1.709,11.8306 -1.2237,3.3495 -1.9213,11.0194 -2.7284,29.999998 -1.9296,45.377096 -7.4301,55.584496 -25.0445,46.475796 -1.621,-0.8383 -6.2112,-1.7271 -10.2003,-1.9752 -13.5309,-0.841296 -15.3532,-5.715096 -11.3776,-30.430396 3.274,-20.353298 4.6247,-31.783398 4.6247,-39.134998 0,-3.0896 0.6701,-7.8264 1.4892,-10.5263 3.6605,-12.0664997 -1.9189,-15.2939997 -16.9892,-9.8277 -6.8511,2.485 -10.7847,3.0192 -39.5,5.3644 -33.9006,2.7686 -35.7949,4.4504 -34.4139,30.5544 2.2791,43.080398 1.0826,56.145294 -5.9312,64.764694 -6.2849,7.7235 -8.4109,8.469 -15.1119,5.299 -4.234,-2.003 -6.974,-2.5637 -12.5288,-2.5637 -12.9979,0 -13.3178,-1.0299 -11.8055,-37.999996 1.4741,-36.035298 0.3929,-41.610798 -8.446,-43.552098 -1.7507,-0.3845 -4.8818,-1.5845 -6.9579,-2.6667 -7.1227,-3.7125 -10.3284,-3.5293 -41.5899,2.3767 -2.9069,0.5492 -6.5069,2.0506 -8,3.3366 l -2.7149,2.3381 0.3029,13.3337 c 0.1667,7.333498 0.9631,17.608698 1.7699,22.833698 0.8068,5.225 1.5705,15.4313 1.697,22.6806 l 0.2302,13.180596 -3.5,3.6545 c -10.6668,11.1377 -29.8775,12.7181 -39.388,3.2403 l -2.8879,-2.8781 0.7253,-31.700096 c 1.0134,-44.287898 2.0432,-43.356598 -38.9494,-35.224298 -18.2188,3.6143 -20.1715,4.9941 -19.0879,13.487898 0.3549,2.7822 1.3081,10.9086 2.1183,18.0586 0.8101,7.15 2.1198,16.375 2.9106,20.5 0.7907,4.124996 1.9482,10.874996 2.5722,14.999996 0.624,4.125 1.7787,11.1 2.566,15.5 2.839,15.8673 0.3157,18.081 -20.2954,17.8049 -13.6737,-0.1832 -14.8627,-0.045 -19.3921,2.25 -16.9987,8.6139 -18.6484,4.3308 -19.3273,-50.179796 -0.4806,-38.5883 2.2926,-36.4363 -32.0644,-24.8818 -5.5,1.8497 -15.4,4.5368 -22.0000002,5.9714 -22.8317998,4.9627 -23.9322998,6.4737 -19.1143998,26.245196 1.3122,5.3846 2.8561,12.7151 3.431,16.2901 0.575,3.575 2.1972998,11.45 3.6052998,17.5 5.1629,22.1849 2.6401,30.3259 -9.9218998,32.0174 -2.75,0.3703 -8.5108,1.7554 -12.8017,3.078 -13.8692,4.2748 -15.7943,3.3057 -18.1776,-9.1507 -0.9177,-4.7964 -3.1045,-11.1122 -5.5207,-15.9447 -3.9617,-7.9232 -6.0496,-16.1112 -7.5226,-29.5 -2.5794,-23.445996 -5.6021,-24.968196 -31.7583,-15.9931 -54.7436,18.7846 -54.0304,18.1479 -44.3505,39.5971 2.9527,6.5428 5.9329,14.371 6.6225,17.396 0.6896,3.025 2.707,9.325 4.4832,14 5.412,14.2447 7.8757,25.0428 7.1107,31.1655 -0.9643,7.718 -1.4181,8.1284 -9.8841,8.937 -8.3966,0.8021 -11.1837,1.9973 -18.2247,7.8157 -9.5407,7.884 -15.8268,3.5873 -17.1313,-11.7097 -0.4172,-4.8919 -1.7293,-9.281 -4.8456,-16.2085 -2.3504,-5.225 -6.4242,-15.7321 -9.0529,-23.3492 -7.1408,-20.6915 -9.9761,-23.4815 -19.1228,-18.8164 -2.103,1.0726 -9.2236,3.9834 -15.8236,6.4685 -13.212,4.9746 -30.1468,13.5443 -33.0037,16.7011 -3.6001,3.9781 -1.0533,11.6842 13.5626,41.0366 4.1273,8.2888 6.6258,15.0535 8.8673,24.0084 l 3.1207,12.468 -2.6085,7.4661 c -4.1533,11.8922 -6.3161,14.0213 -14.2381,14.0213 -2.533,0 -6.2095,1.2262 -10.4943,3.5 -11.7254,6.2224 -17.944,4.2076 -22.1704,-7.1829 -0.9831,-2.6494 -3.9352,-8.8671 -6.5603,-13.8171 -6.1112,-11.5236 -10.3187,-24.0728 -12.8275,-38.2583 -4.2319,-23.9288 -12.2393,-24.8651 -30.0775,-3.5169 -3.9825,4.7661 -8.2516,8.0335 -20.4562,15.6561 -21.5051,13.4315 -21.472,13.1257 -4.2643,39.4226 23.3234,35.6431 24.6308,42.5201 10.0581,52.9078 -23.1961,16.5346 -31.7231,14.5957 -41.8691,-9.5203 -5.0926,-12.1046 -11.5239,-27.1596 -14.3035,-33.4828 -6.7396,-15.3317 -12.1153,-13.9114 -39.1847,10.3528 -16.0599,14.3957 -17.3319,18.6731 -9.2526,31.1159 2.2581,3.4777 6.2648,10.0981 8.9038,14.7119 2.639,4.6138 7.1913,11.0777 10.1163,14.3642 6.5412,7.3495 6.9825,8.4846 7.7956,20.052 l 0.652,9.2754 -3.1624,3.1624 c -2.7769,2.7769 -30.4218,17.3211 -32.7273,17.2181 -0.4818,-0.022 -2.226,-0.6284 -3.876,-1.3485 z"
       id="path3364"
       inkscape:connector-curvature="0" />
  </g>
</svg>
